<?xml version="1.0" standalone="no"?>
<!DOCTYPE svg PUBLIC "-//W3C//DTD SVG 1.1//EN" "http://www.w3.org/Graphics/SVG/1.1/DTD/svg11.dtd" >
<svg>
<metadata>
Created by FontForge 20090622 at Thu Apr  4 08:31:56 2019
 By deploy user
</metadata>
<defs>
<font id="NumbersClaimcheck" horiz-adv-x="500" >
  <font-face 
    font-family="NumbersClaimcheck"
    font-weight="550"
    font-stretch="normal"
    units-per-em="1000"
    panose-1="2 0 6 6 4 0 0 2 0 2"
    ascent="800"
    descent="-200"
    x-height="1"
    cap-height="777"
    bbox="-7.36364 -145 516 840"
    underline-thickness="0"
    underline-position="-250"
    unicode-range="U+0003-U+00FF"
  />
<missing-glyph horiz-adv-x="1000" 
 />
    <glyph glyph-name=".notdef" horiz-adv-x="1000" 
 />
    <glyph glyph-name=".null" horiz-adv-x="0" 
 />
    <glyph glyph-name="nonmarkingreturn" horiz-adv-x="520" 
 />
    <glyph glyph-name="space" unicode=" " horiz-adv-x="520" 
d="M0 1v-1v1z" />
    <glyph glyph-name="space" unicode="&#xa0;" horiz-adv-x="520" 
d="M0 1v-1v1z" />
    <glyph glyph-name="exclam" unicode="!" 
d="M0 1v-1v1z" />
    <glyph glyph-name="quotedbl" unicode="&#x22;" horiz-adv-x="260" 
d="M212 474q-1 -12 -12 -10h-38q-10 -2 -7 8l32 236q0 9 10 8h60q11 0 9 -11l-54 -231v1v-1zM50 474q-1 -12 -12 -10h-38q-9 -1 -7 8l32 236q0 10 10 8h61q10 0 8 -11z" />
    <glyph glyph-name="numbersign" unicode="#" horiz-adv-x="520" 
d="M312 268l28 166q2 9 -8 8h-114q-10 0 -10 -9l-28 -166q-3 -10 7 -9h114q11 0 11 10v1v-1zM459 199h-90q-10 2 -10 -10l-33 -185q0 -12 -11 -12h-44q-10 0 -7 11l33 187q1 10 -8 9h-114q-10 0 -10 -10l-33 -185q0 -12 -11 -12h-45q-8 0 -7 11l35 187q2 11 -8 9h-78
q-10 0 -10 11v38q0 10 12 10h86q10 -1 11 10l29 166q3 10 -7 8h-77q-10 0 -10 11v39q0 10 11 10h86q9 -1 11 10l33 187q0 12 10 10h45q9 1 8 -9l-33 -189q-1 -10 7 -9h115q9 1 9 10l34 187q-2 12 9 10h45q9 1 8 -9l-34 -189q-1 -10 8 -9h78q11 0 11 -9v-41q0 -10 -10 -10
h-91q-10 2 -10 -9l-29 -166q-2 -9 8 -9h77q10 1 10 -9v-40q0 -10 -9 -10z" />
    <glyph glyph-name="dollar" unicode="$" horiz-adv-x="520" 
d="M223 -5q0 10 -9 10q-72 18 -109 68q-17 26 -26.5 53t-9.5 58q-3 15 11 12h42q18 3 20 -11q5 -52 31 -83q29 -35 86 -35q117 3 119 117q0 62 -43 93q-21 15 -47 28.5t-58 27.5q-30 13 -55 30.5t-45 38.5q-20 22 -31.5 50.5t-10.5 65.5q2 69 37.5 112.5t101.5 63.5
q8 0 8 11v98q-2 10 9 9h51q10 0 10 -9v-96q-2 -11 7 -11q69 -13 105 -63q34 -47 34 -110q3 -15 -10 -12h-43q-16 -3 -18 11q-2 107 -111 110q-27 1 -47 -8t-34 -24q-28 -33 -28 -79q1 -55 37 -83q18 -15 40.5 -27.5t48.5 -23.5q41 -18 71 -38t51 -42q43 -47 42 -120
q0 -79 -42 -125q-41 -49 -108 -59q-9 0 -9 -10v-96q1 -11 -9 -9h-51q-10 -2 -8 8v99v1v-1z" />
    <glyph glyph-name="ampersand" unicode="&#x26;" 
d="M0 1v-1v1z" />
    <glyph glyph-name="quotesingle" unicode="'" horiz-adv-x="260" 
d="M131 475q-1 -12 -12 -10h-38q-10 -2 -7 8l32 237q0 11 10 9h60q10 0 9 -12l-54 -232v1v-1z" />
    <glyph glyph-name="parenleft" unicode="(" horiz-adv-x="520" 
d="M171 350q5 -184 85 -290q81 -108 193 -133q12 -3 11 -12v-48q1 -10 -16 -7q-148 33 -244 162q-48 66 -73.5 147t-25.5 181t25.5 181.5t73.5 146.5q95 128 244 161q17 3 16 -6v-48q1 -10 -11 -13q-111 -24 -193 -132q-80 -107 -85 -290v1v-1z" />
    <glyph glyph-name="parenright" unicode=")" horiz-adv-x="520" 
d="M350 350q-5 183 -85 290q-82 108 -194 132q-13 3 -10 13v48q-3 9 15 6q149 -33 244 -161q49 -65 74.5 -146.5t25.5 -181.5t-26 -181t-74 -147q-96 -129 -244 -162q-18 -3 -15 7v48q-3 9 10 12q114 26 194 133q80 106 85 290v1v-1z" />
    <glyph glyph-name="asterisk" unicode="*" horiz-adv-x="520" 
d="M195 505q9 3 0 8l-122 71q-8 4 -3 12l20 32q4 7 12 3l122 -70q8 -6 6 3v143q0 9 9 9h37q10 0 9 -9v-142q0 -9 8 -3l121 70q9 6 13 -3l18 -32q7 -9 -3 -13l-122 -70q-8 -6 0 -9l122 -70q12 -5 3 -12l-17 -33q-6 -10 -14 -4l-122 71q-7 4 -7 -4v-140q1 -10 -9 -9h-37
q-9 0 -9 8v142q1 8 -6 4l-123 -71q-9 -6 -12 4l-19 32q-4 7 3 12l122 70v1v-1z" />
    <glyph glyph-name="plus" unicode="+" horiz-adv-x="520" 
d="M216 315h-171q-10 0 -9 10v50q-1 9 9 9h171q10 -3 10 9v171q-3 12 8 10h52q10 1 9 -10v-171q-2 -12 10 -9h171q9 0 8 -9v-50q2 -10 -8 -10h-171q-12 3 -10 -8v-172q1 -11 -9 -9h-52q-10 -2 -8 9v172q0 11 -10 8v1v-1z" />
    <glyph glyph-name="comma" unicode="," horiz-adv-x="260" 
d="M194 19q-3 -86 -44 -124q-41 -39 -77 -39q-7 0 -7 10v27q0 8 8 8q28 7 46 29q20 23 22 60q-3 5 -5 4l-19 -3q-42 2 -48 53q6 57 58 60q41 -3 56 -33q10 -15 10 -52v1v-1z" />
    <glyph glyph-name="hyphen" unicode="-" horiz-adv-x="520" 
d="M420 383q10 1 10 -9v-52q0 -10 -10 -10h-319q-11 0 -10 10v52q-1 10 10 9h319v1v-1z" />
    <glyph glyph-name="period" unicode="." horiz-adv-x="260" 
d="M188 45q-3 -56 -59 -61q-55 4 -59 61q5 56 59 59q56 -3 59 -59v1v-1z" />
    <glyph glyph-name="slash" unicode="/" horiz-adv-x="520" 
d="M142 -130q-1 -11 -12 -11h-54q-10 0 -7 10l308 961q1 10 12 10h53q10 0 7 -9l-307 -961v1v-1z" />
    <glyph glyph-name="zero" unicode="0" horiz-adv-x="520" 
d="M137 515v-330q0 -62 33 -98q33 -38 90 -38q55 0 90 38q34 39 34 98v330q0 59 -34 96q-35 38 -90 38q-57 0 -90 -38q-33 -36 -33 -96v1v-1zM260 718q87 -2 141 -58q27 -28 41.5 -64t14.5 -81v-330q0 -88 -56 -147q-26 -28 -61.5 -43t-79.5 -15t-79.5 15t-62.5 43
q-55 58 -55 147v330q0 88 55 145t142 58z" />
    <glyph glyph-name="one" unicode="1" horiz-adv-x="520" 
d="M217 693l12 9h69q10 0 10 -10v-617q-3 -10 8 -10h127q11 3 9 -8v-48q1 -11 -9 -9h-345q-11 -1 -10 9v48q-2 11 10 8h131q10 0 9 10v521q0 11 -9 2q-46 -43 -134 -78q-7 -4 -9 4v50q0 6 7 9q81 34 124 110v1v-1z" />
    <glyph glyph-name="two" unicode="2" horiz-adv-x="520" 
d="M148 80q0 -9 9 -9h285q11 3 9 -8v-53q2 -11 -9 -10h-358q-11 -2 -9 10v53q0 66 20.5 116t55.5 85l71.5 65t70.5 58t55 61.5t22 78.5q1 51 -29 86q-29 35 -79 35q-55 0 -86 -37t-32 -88q0 -14 -11 -11h-53q-11 -3 -9 9q4 79 56 137q52 59 136 60q78 0 130 -54
q25 -26 39 -59t13 -75q-1 -54 -21 -95t-55 -70l-141 -118q-71 -58 -80 -167v1v-1z" />
    <glyph glyph-name="three" unicode="3" horiz-adv-x="520" 
d="M251 50q56 2 89 40q33 37 33 96q0 72 -39 111t-102 39h-11q-11 -2 -9 10v47q-2 11 9 8h6q29 0 53 10t42 28q18 19 28.5 43.5t8.5 56.5q-3 106 -101 109q-38 3 -70 -26q-29 -27 -36 -77q0 -14 -9 -12h-53q-12 -1 -9 10q8 76 56 124q51 51 122 51q73 0 124 -51
q24 -25 37.5 -57t13.5 -71q0 -33 -9 -59t-25 -46q-30 -39 -68 -57q-8 -5 1 -11q39 -17 75 -57q39 -44 39 -123q0 -42 -14.5 -78.5t-41.5 -65.5q-28 -29 -63 -45t-78 -17q-75 0 -131 51q-55 52 -59 142q-3 5 8 8h53q10 1 11 -12q8 -114 119 -119v1v-1z" />
    <glyph glyph-name="four" unicode="4" horiz-adv-x="520" 
d="M375 236q-2 -11 9 -9h59q10 1 9 -9v-48q1 -10 -9 -10h-59q-10 1 -9 -9v-140q1 -12 -9 -11h-50q-8 -1 -8 11v140q1 10 -9 9h-227q-9 0 -9 10v61l4 17l208 446q5 8 14 8h77q10 1 9 -10v-456v1v-1zM300 604l-170 -368q-5 -9 6 -9h163q10 -2 9 9v366q-3 10 -8 2z" />
    <glyph glyph-name="five" unicode="5" horiz-adv-x="520" 
d="M141 160q8 -107 117 -110q50 -1 83 33q32 34 32 93v89q0 52 -28 86q-15 17 -35.5 26t-46.5 9q-62 -1 -97 -33q-5 -8 -13 -5h-48q-11 -3 -8 8v335q-3 11 8 9h305q10 1 9 -9v-49q1 -11 -9 -10h-238q-11 1 -9 -9v-193q0 -9 9 -4q41 22 97 22q77 0 127 -50q49 -49 49 -133
v-89q0 -45 -14.5 -79.5t-40.5 -60.5q-27 -26 -60.5 -40t-74.5 -14q-42 0 -74 13.5t-57 38.5q-50 51 -54 129q-2 10 9 9h51q11 2 11 -12v1v-1z" />
    <glyph glyph-name="six" unicode="6" horiz-adv-x="520" 
d="M141 198q0 -65 31 -105q33 -44 90 -44t90 44q31 43 31 107q0 32 -8 58.5t-22 46.5q-31 42 -89 41q-62 -2 -92.5 -40t-30.5 -108v1v-1zM141 510v-143q0 -10 8 -4q32 42 119 50q85 -1 137 -61q52 -61 52 -152q0 -88 -54 -153q-26 -32 -61 -49.5t-80 -17.5t-80.5 17
t-61.5 49t-39.5 70.5t-13.5 86.5v307q0 44 13.5 80.5t39.5 65.5q53 61 144 62q72 0 126 -43q52 -44 62 -115q1 -9 -10 -9h-57q-10 0 -10 11q-9 36 -34 61q-27 25 -78 25q-59 0 -90 -39q-32 -38 -32 -99z" />
    <glyph glyph-name="seven" unicode="7" horiz-adv-x="520" 
d="M438 607q-88 -147 -130 -294q-21 -72 -33.5 -148.5t-15.5 -157.5q1 -12 -10 -11h-56q-11 2 -8 11q3 77 17 154t37 156q24 79 57 154t77 147q9 14 -1 14h-301q-11 -2 -8 10v51q-3 11 8 9h363q11 2 8 -9v-72l-4 -14v1v-1z" />
    <glyph glyph-name="eight" unicode="8" horiz-adv-x="520" 
d="M260 49q54 0 89 38q33 36 33 97q0 64 -32 104q-33 41 -90 41q-56 0 -89 -41q-32 -40 -32 -104q0 -61 33 -97q33 -38 88 -38v1v-1zM260 396q108 6 109 129q1 50 -29 88q-29 37 -80 37t-80 -37t-29 -88q3 -123 109 -129zM260 716q77 -1 128 -56q25 -26 39 -59.5t13 -74.5
q-1 -60 -22.5 -100t-61.5 -60q-4 -3 1 -10q97 -56 96 -171q-2 -91 -56 -145q-55 -57 -137 -57q-42 0 -76 15t-61 42q-54 54 -56 145q-1 115 96 171q6 6 1 10q-39 20 -60.5 60t-23.5 100q-1 41 13 74.5t40 59.5q50 55 127 56z" />
    <glyph glyph-name="nine" unicode="9" horiz-adv-x="520" 
d="M380 500q0 66 -31 106q-33 43 -92 43t-90 -43q-32 -43 -32 -108q0 -66 31 -106q15 -20 37.5 -31.5t51.5 -9.5q63 2 93.5 40t31.5 109v1v-1zM380 189v142q0 10 -9 3q-32 -41 -120 -48q-87 1 -137 61q-51 60 -51 151q0 89 52 152q54 65 142 66q89 0 142 -65q52 -63 52 -156
v-306q0 -85 -52 -145q-50 -59 -144 -61q-74 0 -126 43q-50 42 -61 114q0 8 9 8h56q10 0 11 -11q7 -35 33 -61q27 -25 79 -25q59 0 92 39q32 40 32 99z" />
    <glyph glyph-name="colon" unicode=":" horiz-adv-x="260" 
d="M188 369q-3 -57 -59 -60q-54 3 -59 60q5 56 59 60q56 -5 59 -60v1v-1zM188 45q-3 -56 -59 -61q-55 4 -59 61q5 56 59 59q56 -3 59 -59z" />
    <glyph glyph-name="semicolon" unicode=";" horiz-adv-x="260" 
d="M188 369q-3 -57 -59 -60q-54 3 -59 60q5 56 59 60q57 -5 58 -60v1v-1h1zM193 18q-3 -87 -44 -124q-41 -39 -78 -39q-7 0 -7 9v28q0 8 8 8q29 6 47 29q11 12 15.5 27t6.5 32l-6 5l-18 -4q-43 3 -49 54q6 57 59 60q43 -3 56 -33q10 -15 10 -52z" />
    <glyph glyph-name="semicolon" unicode="&#x37e;" horiz-adv-x="260" 
d="M188 369q-3 -57 -59 -60q-54 3 -59 60q5 56 59 60q57 -5 58 -60v1v-1h1zM193 18q-3 -87 -44 -124q-41 -39 -78 -39q-7 0 -7 9v28q0 8 8 8q29 6 47 29q11 12 15.5 27t6.5 32l-6 5l-18 -4q-43 3 -49 54q6 57 59 60q43 -3 56 -33q10 -15 10 -52z" />
    <glyph glyph-name="less" unicode="&#x3c;" horiz-adv-x="520" 
d="M50 324v53q-1 6 11 12l395 191q9 4 9 -8v-57q0 -10 -10 -11l-315 -149q-11 -5 0 -9l315 -150q10 0 10 -10v-58q0 -12 -9 -7l-395 191q-11 2 -11 12v1v-1z" />
    <glyph glyph-name="equal" unicode="=" horiz-adv-x="520" 
d="M465 277q10 3 10 -8v-52q0 -12 -10 -10h-409q-12 -2 -10 10v52q-2 11 10 8h409v1v-1zM465 491q10 3 10 -9v-51q0 -12 -10 -10h-409q-10 -1 -10 10v51q-2 12 10 9h409z" />
    <glyph glyph-name="greater" unicode="&#x3e;" horiz-adv-x="520" 
d="M471 324q-2 -10 -11 -12l-396 -191q-10 -5 -8 7v58q0 10 9 10l316 150q9 4 0 9l-316 149q-9 1 -9 11v57q0 12 8 8l396 -191l11 -12v-53v1v-1z" />
    <glyph glyph-name="question" unicode="?" 
d="M0 1v-1v1z" />
    <glyph glyph-name="at" unicode="@" 
d="M0 1v-1v1z" />
    <glyph glyph-name="A" unicode="A" horiz-adv-x="520" 
d="M221 771l9 3h62q9 1 8 -3v-313q-2 -5 10 -4h117q10 0 10 -5v-42q0 -6 -10 -6h-320q-10 0 -7 6v42l7 5h127q11 -2 9 4v250l-10 1q-42 -28 -129 -46q-6 -2 -6 2v42l6 5q77 18 117 59z" />
    <glyph glyph-name="B" unicode="B" horiz-adv-x="520" 
d="M148 459q0 -5 8 -4h269l9 -5v-43q0 -6 -9 -6h-328q-12 0 -10 6v32q0 63 42.5 101.5t123.5 55.5q117 24 112 74q2 26 -17 41t-59 15h-56q-38 0 -58.5 -16t-22.5 -42q0 -8 -8 -6h-47q-11 -2 -9 4q3 44 38 78q36 33 106 33h64q65 0 98 -27t35 -76q0 -52 -41 -79
q-20 -14 -48.5 -24.5t-65.5 -19.5q-68 -17 -98 -41q-28 -22 -28 -51v1v-1z" />
    <glyph glyph-name="C" unicode="C" horiz-adv-x="520" 
d="M228 450h58q32 0 56 14q26 15 26 49q0 63 -86 63h-62q-11 -2 -10 5v39q-2 6 10 4h59q79 0 78 51q0 29 -22 42q-20 10 -46 10h-67q-63 0 -72 -46q0 -9 -9 -7h-46q-11 -2 -9 6q5 40 37 68q34 29 100 29h70q57 0 91 -25q33 -25 35 -67q-7 -69 -74 -81q-7 -2 0 -5
q32 -6 58 -26q13 -10 20.5 -24.5t7.5 -34.5q0 -28 -12 -49t-33 -36q-22 -15 -48.5 -23.5t-58.5 -8.5h-62q-67 0 -102.5 29t-40.5 83q-1 2 8 4h47q10 0 10 -7q6 -56 89 -56v1v-1z" />
    <glyph glyph-name="D" unicode="D" horiz-adv-x="520" 
d="M314 724l-170 -183q-7 -7 4 -5h165q10 -2 8 5v182l-7 1v1v-1zM376 541q-2 -7 9 -5h55q11 2 8 -6v-38q3 -6 -8 -6h-55q-11 3 -9 -5v-76q1 -4 -8 -4h-38q-10 0 -9 4v76l-8 5h-238q-11 0 -9 6v32l4 9l219 237q1 4 12 3h67q9 1 8 -3v-229z" />
    <glyph glyph-name="E" unicode="E" horiz-adv-x="520" 
d="M148 503q3 -25 20 -39q8 -8 24 -11t39 -3h56q82 0 84 72q1 70 -87 70h-52q-40 0 -65 -20l-12 -3h-44q-11 0 -8 6v194q-4 6 8 4h291q10 2 8 -4v-43q2 -7 -8 -5h-237q-10 0 -9 -5v-86q2 -5 9 -2q14 7 35.5 11.5t53.5 4.5h38q134 0 141 -121q-3 -55 -41 -89
q-40 -37 -105 -37h-58q-76 0 -109 31q-31 28 -33 76q-2 5 10 5h43q8 0 8 -6v1v-1z" />
    <glyph glyph-name="F" unicode="F" horiz-adv-x="520" 
d="M382 518q-3 65 -88 65h-52q-48 0 -71.5 -18t-23.5 -50q8 -68 89 -68h58q43 0 65 18.5t23 52.5v1v-1zM141 611v-5q0 -5 8 -2q17 13 42 21t60 8h48q70 0 106.5 -29t37.5 -83q2 -53 -39 -87q-40 -37 -111 -37h-58q-75 0 -113 40.5t-38 113.5v30v30q0 73 41 119q41 47 114 47
h56q137 0 143 -98q1 -4 -7 -4h-48q-9 0 -9 6q-8 47 -80 47h-45q-61 0 -86 -33q-24 -29 -22 -84z" />
    <glyph glyph-name="G" unicode="G" horiz-adv-x="520" 
d="M426 707q-84 -75 -125 -146q-41 -72 -45 -156q1 -5 -8 -5h-46q-8 1 -8 5q7 154 163 307q8 8 -2 8h-267q-9 -2 -8 4v45l8 4h333q11 2 9 -4v-54l-4 -8v1v-1z" />
    <glyph glyph-name="H" unicode="H" horiz-adv-x="520" 
d="M287 622q78 3 78 56q1 24 -19 39t-61 15h-50q-41 0 -60.5 -15t-19.5 -39q1 -26 20.5 -41t57.5 -15h54v1v-1zM232 568q-87 -1 -89 -60q-1 -28 21 -45t67 -17h58q46 0 68 17t21 45q-2 60 -90 60h-56zM291 777q58 0 97 -27q19 -14 29.5 -30.5t9.5 -37.5q-1 -35 -19.5 -56
t-52.5 -29q-3 -3 1 -4q84 -26 83 -90q0 -48 -42 -76q-41 -30 -104 -30h-66q-64 0 -105 30q-39 28 -41 76q-1 64 83 90q5 2 1 4q-68 17 -72 85q1 41 39 68q37 27 97 27h62z" />
    <glyph glyph-name="I" unicode="I" horiz-adv-x="520" 
d="M145 658q2 -65 87 -65h52q48 0 71.5 18t23.5 50q-8 67 -89 67h-58q-43 0 -64.5 -18.5t-22.5 -51.5v1v-1zM387 563v5q0 9 -10 2q-17 -12 -42 -19.5t-60 -7.5h-47q-71 0 -107 28.5t-38 81.5q-1 28 9.5 50t30.5 39q40 35 110 35h58q75 0 113 -39.5t38 -112.5v-30v-32
q0 -73 -40 -119q-20 -23 -48.5 -35t-66.5 -12h-56q-69 0 -104.5 26t-38.5 74q-1 4 9 4h47q8 0 8 -6q4 -23 24 -35.5t56 -12.5h45q61 0 86 33q24 31 24 83z" />
    <glyph glyph-name="J" unicode="J" horiz-adv-x="520" 
d="M279 725h-39q-34 0 -57 -10.5t-37 -29.5q-28 -40 -28 -97q0 -59 28 -97q28 -40 94 -40h39q66 0 95 40q28 38 28 97q0 57 -28 97q-29 39 -95 40v1v-1zM463 588q0 -82 -44 -135q-23 -27 -54 -41.5t-73 -14.5h-64q-42 0 -74 14.5t-53 41.5q-43 52 -43 135q0 82 43 135
q43 54 127 54h64q81 0 127 -54q44 -53 44 -135z" />
    <glyph glyph-name="K" unicode="K" horiz-adv-x="520" 
d="M148 -18q0 -4 8 -3h269q9 0 9 -5v-43q0 -7 -9 -5h-328q-12 -2 -10 5v33q0 62 42.5 100.5t123.5 55.5q117 24 112 73q2 27 -17 42t-59 15h-56q-38 0 -58.5 -16t-22.5 -43q0 -7 -8 -5h-47q-11 -2 -9 3q3 45 38 79q17 16 43.5 25t62.5 9h64q65 0 98 -27.5t35 -77.5
q0 -52 -41 -79q-20 -14 -48.5 -24t-65.5 -19q-35 -8 -59.5 -19t-38.5 -22q-28 -22 -28 -52v1v-1zM221 771l9 3h62q9 1 8 -3v-313q-2 -5 10 -4h117q10 0 10 -5v-42q0 -6 -10 -6h-320q-10 0 -7 6v42l7 5h127q11 -2 9 4v250l-10 1q-42 -28 -129 -46q-6 -2 -6 2v42l6 5
q77 18 117 59z" />
    <glyph glyph-name="L" unicode="L" horiz-adv-x="520" 
d="M228 -26h58q30 0 56 14q26 15 26 49q0 63 -86 63h-62q-12 -2 -10 4v40q-2 5 10 3h59q80 0 78 52q0 30 -22 41q-11 6 -22.5 8.5t-23.5 2.5h-67q-63 0 -72 -46q0 -8 -9 -8h-46q-11 0 -9 7q4 39 37 67q34 31 100 31h70q53 0 91 -27q33 -23 35 -66q-8 -70 -74 -80q-6 -3 0 -6
q16 -4 30.5 -10t27.5 -16t20.5 -24.5t7.5 -34.5q0 -27 -12 -48t-33 -37q-45 -31 -107 -31h-62q-67 0 -102.5 29t-40.5 82q-1 2 8 4h47q10 0 10 -8q6 -55 89 -55v1v-1zM221 771l9 3h62q9 1 8 -3v-313q-2 -5 10 -4h117q10 0 10 -5v-42q0 -6 -10 -6h-320q-10 0 -7 6v42l7 5h127
q11 -2 9 4v250l-10 1q-42 -28 -129 -46q-6 -2 -6 2v42l6 5q77 18 117 59z" />
    <glyph glyph-name="M" unicode="M" horiz-adv-x="520" 
d="M228 -26h58q30 0 56 14q26 15 26 49q0 63 -86 63h-62q-12 -2 -10 4v40q-2 5 10 3h59q80 0 78 52q0 30 -22 41q-11 6 -22.5 8.5t-23.5 2.5h-67q-63 0 -72 -46q0 -8 -9 -8h-46q-11 0 -9 7q4 39 37 67q34 31 100 31h70q53 0 91 -27q33 -23 35 -66q-8 -70 -74 -80q-6 -3 0 -6
q16 -4 30.5 -10t27.5 -16t20.5 -24.5t7.5 -34.5q0 -27 -12 -48t-33 -37q-45 -31 -107 -31h-62q-67 0 -102.5 29t-40.5 82q-1 2 8 4h47q10 0 10 -8q6 -55 89 -55v1v-1zM148 459q0 -5 8 -4h269l9 -5v-43q0 -6 -9 -6h-328q-12 0 -10 6v32q0 63 42.5 101.5t123.5 55.5
q117 24 112 74q2 26 -17 41t-59 15h-56q-38 0 -58.5 -16t-22.5 -42q0 -8 -8 -6h-47q-11 -2 -9 4q3 44 38 78q36 33 106 33h64q65 0 98 -27t35 -76q0 -52 -41 -79q-20 -14 -48.5 -24.5t-65.5 -19.5q-68 -17 -98 -41q-28 -22 -28 -51z" />
    <glyph glyph-name="N" unicode="N" horiz-adv-x="520" 
d="M314 248l-170 -184q-5 -4 4 -4h165l8 4v183l-7 1v1v-1zM376 64q-1 -4 9 -4h55q10 0 8 -5v-39q2 -5 -8 -5h-55q-10 0 -9 -5v-76q1 -5 -8 -4h-38q-10 -1 -9 4v76l-8 5h-238q-10 0 -9 5v33l4 8l219 237q1 4 12 4h67q10 1 8 -4v-230zM221 771l9 3h62q9 1 8 -3v-313
q-2 -5 10 -4h117q10 0 10 -5v-42q0 -6 -10 -6h-320q-10 0 -7 6v42l7 5h127q11 -2 9 4v250l-10 1q-42 -28 -129 -46q-6 -2 -6 2v42l6 5q77 18 117 59z" />
    <glyph glyph-name="O" unicode="O" horiz-adv-x="520" 
d="M314 248l-170 -184q-5 -4 4 -4h165l8 4v183l-7 1v1v-1zM376 64q-1 -4 9 -4h55q10 0 8 -5v-39q2 -5 -8 -5h-55q-10 0 -9 -5v-76q1 -5 -8 -4h-38q-10 -1 -9 4v76l-8 5h-238q-10 0 -9 5v33l4 8l219 237q1 4 12 4h67q10 1 8 -4v-230zM228 450h58q32 0 56 14q26 15 26 49
q0 63 -86 63h-62q-11 -2 -10 5v39q-2 6 10 4h59q79 0 78 51q0 29 -22 42q-20 10 -46 10h-67q-63 0 -72 -46q0 -9 -9 -7h-46q-11 -2 -9 6q5 40 37 68q34 29 100 29h70q57 0 91 -25q33 -25 35 -67q-7 -69 -74 -81q-7 -2 0 -5q32 -6 58 -26q13 -10 20.5 -24.5t7.5 -34.5
q0 -28 -12 -49t-33 -36q-22 -15 -48.5 -23.5t-58.5 -8.5h-62q-67 0 -102.5 29t-40.5 83q-1 2 8 4h47q10 0 10 -7q6 -56 89 -56z" />
    <glyph glyph-name="P" unicode="P" horiz-adv-x="520" 
d="M148 26q3 -23 20 -38q17 -14 63 -14h56q40 0 61.5 18t22.5 55q1 69 -87 69h-52q-40 0 -65 -19l-12 -3h-44q-11 -2 -8 5v194q-3 5 8 5h291l8 -5v-43q1 -7 -8 -5h-237q-11 0 -9 -5v-87q2 -3 9 -2q14 8 35.5 12.5t53.5 4.5h38q67 0 102 -29t39 -91q-3 -55 -41 -90
q-20 -17 -46 -26.5t-59 -9.5h-58q-76 0 -109 30q-32 30 -33 75l10 6h43q8 0 8 -7v1v-1zM221 771l9 3h62q9 1 8 -3v-313q-2 -5 10 -4h117q10 0 10 -5v-42q0 -6 -10 -6h-320q-10 0 -7 6v42l7 5h127q11 -2 9 4v250l-10 1q-42 -28 -129 -46q-6 -2 -6 2v42l6 5q77 18 117 59z" />
    <glyph glyph-name="Q" unicode="Q" horiz-adv-x="520" 
d="M148 26q3 -23 20 -38q17 -14 63 -14h56q40 0 61.5 18t22.5 55q1 69 -87 69h-52q-40 0 -65 -19l-12 -3h-44q-11 -2 -8 5v194q-3 5 8 5h291l8 -5v-43q1 -7 -8 -5h-237q-11 0 -9 -5v-87q2 -3 9 -2q14 8 35.5 12.5t53.5 4.5h38q67 0 102 -29t39 -91q-3 -55 -41 -90
q-20 -17 -46 -26.5t-59 -9.5h-58q-76 0 -109 30q-32 30 -33 75l10 6h43q8 0 8 -7v1v-1zM148 459q0 -5 8 -4h269l9 -5v-43q0 -6 -9 -6h-328q-12 0 -10 6v32q0 63 42.5 101.5t123.5 55.5q117 24 112 74q2 26 -17 41t-59 15h-56q-38 0 -58.5 -16t-22.5 -42q0 -8 -8 -6h-47
q-11 -2 -9 4q3 44 38 78q36 33 106 33h64q65 0 98 -27t35 -76q0 -52 -41 -79q-20 -14 -48.5 -24.5t-65.5 -19.5q-68 -17 -98 -41q-28 -22 -28 -51z" />
    <glyph glyph-name="R" unicode="R" horiz-adv-x="520" 
d="M148 26q3 -23 20 -38q17 -14 63 -14h56q40 0 61.5 18t22.5 55q1 69 -87 69h-52q-40 0 -65 -19l-12 -3h-44q-11 -2 -8 5v194q-3 5 8 5h291l8 -5v-43q1 -7 -8 -5h-237q-11 0 -9 -5v-87q2 -3 9 -2q14 8 35.5 12.5t53.5 4.5h38q67 0 102 -29t39 -91q-3 -55 -41 -90
q-20 -17 -46 -26.5t-59 -9.5h-58q-76 0 -109 30q-32 30 -33 75l10 6h43q8 0 8 -7v1v-1zM228 450h58q32 0 56 14q26 15 26 49q0 63 -86 63h-62q-11 -2 -10 5v39q-2 6 10 4h59q79 0 78 51q0 29 -22 42q-20 10 -46 10h-67q-63 0 -72 -46q0 -9 -9 -7h-46q-11 -2 -9 6q5 40 37 68
q34 29 100 29h70q57 0 91 -25q33 -25 35 -67q-7 -69 -74 -81q-7 -2 0 -5q32 -6 58 -26q13 -10 20.5 -24.5t7.5 -34.5q0 -28 -12 -49t-33 -36q-22 -15 -48.5 -23.5t-58.5 -8.5h-62q-67 0 -102.5 29t-40.5 83q-1 2 8 4h47q10 0 10 -7q6 -56 89 -56z" />
    <glyph glyph-name="S" unicode="S" horiz-adv-x="520" 
d="M148 26q3 -23 20 -38q17 -14 63 -14h56q40 0 61.5 18t22.5 55q1 69 -87 69h-52q-40 0 -65 -19l-12 -3h-44q-11 -2 -8 5v194q-3 5 8 5h291l8 -5v-43q1 -7 -8 -5h-237q-11 0 -9 -5v-87q2 -3 9 -2q14 8 35.5 12.5t53.5 4.5h38q67 0 102 -29t39 -91q-3 -55 -41 -90
q-20 -17 -46 -26.5t-59 -9.5h-58q-76 0 -109 30q-32 30 -33 75l10 6h43q8 0 8 -7v1v-1zM314 724l-170 -183q-7 -7 4 -5h165q10 -2 8 5v182zM376 541q-2 -7 9 -5h55q11 2 8 -6v-38q3 -6 -8 -6h-55q-11 3 -9 -5v-76q1 -4 -8 -4h-38q-10 0 -9 4v76l-8 5h-238q-11 0 -9 6v32l4 9
l219 237q1 4 12 3h67q9 1 8 -3v-229z" />
    <glyph glyph-name="T" unicode="T" horiz-adv-x="520" 
d="M382 42q-3 64 -88 64h-52q-95 0 -95 -67q7 -67 89 -67h58q86 0 88 70v1v-1zM141 136v-5q0 -7 8 -2q17 12 42 20t60 8h48q70 0 106.5 -29t37.5 -82t-39 -89q-40 -35 -111 -35h-58q-75 0 -113 40t-38 113v29v32q0 72 41 119q42 47 114 47h56q137 0 143 -99q1 -4 -7 -4h-48
q-9 0 -9 6q-8 47 -80 47h-45q-62 0 -86 -32q-24 -31 -22 -84zM221 771l9 3h62q9 1 8 -3v-313q-2 -5 10 -4h117q10 0 10 -5v-42q0 -6 -10 -6h-320q-10 0 -7 6v42l7 5h127q11 -2 9 4v250l-10 1q-42 -28 -129 -46q-6 -2 -6 2v42l6 5q77 18 117 59z" />
    <glyph glyph-name="U" unicode="U" horiz-adv-x="520" 
d="M382 42q-3 64 -88 64h-52q-95 0 -95 -67q7 -67 89 -67h58q86 0 88 70v1v-1zM141 136v-5q0 -7 8 -2q17 12 42 20t60 8h48q70 0 106.5 -29t37.5 -82t-39 -89q-40 -35 -111 -35h-58q-75 0 -113 40t-38 113v29v32q0 72 41 119q42 47 114 47h56q137 0 143 -99q1 -4 -7 -4h-48
q-9 0 -9 6q-8 47 -80 47h-45q-62 0 -86 -32q-24 -31 -22 -84zM148 503q3 -25 20 -39q8 -8 24 -11t39 -3h56q82 0 84 72q1 70 -87 70h-52q-40 0 -65 -20l-12 -3h-44q-11 0 -8 6v194q-4 6 8 4h291q10 2 8 -4v-43q2 -7 -8 -5h-237q-10 0 -9 -5v-86q2 -5 9 -2q14 7 35.5 11.5
t53.5 4.5h38q134 0 141 -121q-3 -55 -41 -89q-40 -37 -105 -37h-58q-76 0 -109 31q-31 28 -33 76q-2 5 10 5h43q8 0 8 -6z" />
    <glyph glyph-name="V" unicode="V" horiz-adv-x="520" 
d="M287 146q78 3 78 56q1 25 -19 40t-61 15h-50q-41 0 -60.5 -15t-19.5 -40q1 -26 20.5 -41t57.5 -15h54zM232 93q-88 -3 -89 -61q-1 -28 21 -44.5t67 -16.5h58q46 0 68 16.5t21 44.5q-2 61 -90 61h-56zM291 302q59 -2 97 -28q19 -13 29.5 -30t9.5 -38q-1 -35 -19.5 -56
t-52.5 -29q-4 -2 1 -4q84 -26 83 -91q0 -48 -42 -76q-40 -28 -104 -28h-66q-65 0 -105 28q-39 28 -41 76q-1 65 83 91q6 2 1 4q-68 17 -72 85q2 43 39 68q39 28 97 28h62zM221 771l9 3h62q9 1 8 -3v-313q-2 -5 10 -4h117q10 0 10 -5v-42q0 -6 -10 -6h-320q-10 0 -7 6v42l7 5
h127q11 -2 9 4v250l-10 1q-42 -28 -129 -46q-6 -2 -6 2v42l6 5q77 18 117 59z" />
    <glyph glyph-name="W" unicode="W" horiz-adv-x="520" 
d="M287 146q78 3 78 56q1 25 -19 40t-61 15h-50q-41 0 -60.5 -15t-19.5 -40q1 -26 20.5 -41t57.5 -15h54zM232 93q-88 -3 -89 -61q-1 -28 21 -44.5t67 -16.5h58q46 0 68 16.5t21 44.5q-2 61 -90 61h-56zM291 302q59 -2 97 -28q19 -13 29.5 -30t9.5 -38q-1 -35 -19.5 -56
t-52.5 -29q-4 -2 1 -4q84 -26 83 -91q0 -48 -42 -76q-40 -28 -104 -28h-66q-65 0 -105 28q-39 28 -41 76q-1 65 83 91q6 2 1 4q-68 17 -72 85q2 43 39 68q39 28 97 28h62zM228 450h58q32 0 56 14q26 15 26 49q0 63 -86 63h-62q-11 -2 -10 5v39q-2 6 10 4h59q79 0 78 51
q0 29 -22 42q-20 10 -46 10h-67q-63 0 -72 -46q0 -9 -9 -7h-46q-11 -2 -9 6q5 40 37 68q34 29 100 29h70q57 0 91 -25q33 -25 35 -67q-7 -69 -74 -81q-7 -2 0 -5q32 -6 58 -26q13 -10 20.5 -24.5t7.5 -34.5q0 -28 -12 -49t-33 -36q-22 -15 -48.5 -23.5t-58.5 -8.5h-62
q-67 0 -102.5 29t-40.5 83q-1 2 8 4h47q10 0 10 -7q6 -56 89 -56z" />
    <glyph glyph-name="X" unicode="X" horiz-adv-x="520" 
d="M287 146q78 3 78 56q1 25 -19 40t-61 15h-50q-41 0 -60.5 -15t-19.5 -40q1 -26 20.5 -41t57.5 -15h54zM232 93q-88 -3 -89 -61q-1 -28 21 -44.5t67 -16.5h58q46 0 68 16.5t21 44.5q-2 61 -90 61h-56zM291 302q59 -2 97 -28q19 -13 29.5 -30t9.5 -38q-1 -35 -19.5 -56
t-52.5 -29q-4 -2 1 -4q84 -26 83 -91q0 -48 -42 -76q-40 -28 -104 -28h-66q-65 0 -105 28q-39 28 -41 76q-1 65 83 91q6 2 1 4q-68 17 -72 85q2 43 39 68q39 28 97 28h62zM148 503q3 -25 20 -39q8 -8 24 -11t39 -3h56q82 0 84 72q1 70 -87 70h-52q-40 0 -65 -20l-12 -3h-44
q-11 0 -8 6v194q-4 6 8 4h291q10 2 8 -4v-43q2 -7 -8 -5h-237q-10 0 -9 -5v-86q2 -5 9 -2q14 7 35.5 11.5t53.5 4.5h38q134 0 141 -121q-3 -55 -41 -89q-40 -37 -105 -37h-58q-76 0 -109 31q-31 28 -33 76q-2 5 10 5h43q8 0 8 -6z" />
    <glyph glyph-name="Y" unicode="Y" horiz-adv-x="520" 
d="M287 146q78 3 78 56q1 25 -19 40t-61 15h-50q-41 0 -60.5 -15t-19.5 -40q1 -26 20.5 -41t57.5 -15h54zM232 93q-88 -3 -89 -61q-1 -28 21 -44.5t67 -16.5h58q46 0 68 16.5t21 44.5q-2 61 -90 61h-56zM291 302q59 -2 97 -28q19 -13 29.5 -30t9.5 -38q-1 -35 -19.5 -56
t-52.5 -29q-4 -2 1 -4q84 -26 83 -91q0 -48 -42 -76q-40 -28 -104 -28h-66q-65 0 -105 28q-39 28 -41 76q-1 65 83 91q6 2 1 4q-68 17 -72 85q2 43 39 68q39 28 97 28h62zM426 707q-84 -75 -125 -146q-41 -72 -45 -156q1 -5 -8 -5h-46q-8 1 -8 5q7 154 163 307q8 8 -2 8
h-267q-9 -2 -8 4v45l8 4h333q11 2 9 -4v-54z" />
    <glyph glyph-name="Z" unicode="Z" 
d="M0 1v-1v1z" />
    <glyph glyph-name="bracketleft" unicode="[" horiz-adv-x="520" 
d="M189 772q-11 3 -8 -8v-829q-3 -11 8 -9h272q10 1 10 -9v-48q0 -10 -9 -10h-291h-52q-9 1 -9 11v46v913q-2 12 9 10h52h290q10 1 10 -9v-48q0 -10 -9 -10h-273v1v-1z" />
    <glyph glyph-name="backslash" unicode="\" 
d="M0 1v-1v1z" />
    <glyph glyph-name="bracketright" unicode="]" horiz-adv-x="520" 
d="M331 775h-271q-10 0 -10 10v46q-1 9 11 9h289h49q12 0 9 -10v-916v-44q2 -9 -9 -11h-49h-290q-10 0 -10 10v46q-1 9 11 9h270q10 -1 9 9v834q2 11 -9 8v1v-1z" />
    <glyph glyph-name="asciicircum" unicode="^" horiz-adv-x="260" 
d="M188 188q-3 -54 -58 -59q-54 4 -58 58q4 56 58 60q55 -5 58 -59v-1v1zM188 512q-3 -54 -58 -59q-54 4 -58 59q5 55 58 58q55 -3 58 -58z" />
    <glyph glyph-name="underscore" unicode="_" 
d="M0 1v-1v1z" />
    <glyph glyph-name="grave" unicode="`" 
d="M0 1v-1v1z" />
    <glyph glyph-name="a" unicode="a" horiz-adv-x="520" 
d="M221 295l9 4h62q9 0 8 -4v-314q-1 -4 10 -3h117q10 0 10 -5v-42q0 -7 -10 -5h-320q-10 -2 -7 5v42q-3 5 7 5h127q10 -2 9 3v250l-10 1q-44 -27 -129 -45q-6 -2 -6 1v42l6 5q78 19 117 60v1v-1z" />
    <glyph glyph-name="b" unicode="b" horiz-adv-x="520" 
d="M148 -18q0 -4 8 -3h269q9 0 9 -5v-43q0 -7 -9 -5h-328q-12 -2 -10 5v33q0 62 42.5 100.5t123.5 55.5q117 24 112 73q2 27 -17 42t-59 15h-56q-38 0 -58.5 -16t-22.5 -43q0 -7 -8 -5h-47q-11 -2 -9 3q3 45 38 79q17 16 43.5 25t62.5 9h64q65 0 98 -27.5t35 -77.5
q0 -52 -41 -79q-20 -14 -48.5 -24t-65.5 -19q-35 -8 -59.5 -19t-38.5 -22q-28 -22 -28 -52v1v-1z" />
    <glyph glyph-name="c" unicode="c" horiz-adv-x="520" 
d="M228 -26h58q30 0 56 14q26 15 26 49q0 63 -86 63h-62q-12 -2 -10 4v40q-2 5 10 3h59q80 0 78 52q0 30 -22 41q-11 6 -22.5 8.5t-23.5 2.5h-67q-63 0 -72 -46q0 -8 -9 -8h-46q-11 0 -9 7q4 39 37 67q34 31 100 31h70q53 0 91 -27q33 -23 35 -66q-8 -70 -74 -80q-6 -3 0 -6
q16 -4 30.5 -10t27.5 -16t20.5 -24.5t7.5 -34.5q0 -27 -12 -48t-33 -37q-45 -31 -107 -31h-62q-67 0 -102.5 29t-40.5 82q-1 2 8 4h47q10 0 10 -8q6 -55 89 -55v1v-1z" />
    <glyph glyph-name="d" unicode="d" horiz-adv-x="520" 
d="M314 248l-170 -184q-5 -4 4 -4h165l8 4v183l-7 1v1v-1zM376 64q-1 -4 9 -4h55q10 0 8 -5v-39q2 -5 -8 -5h-55q-10 0 -9 -5v-76q1 -5 -8 -4h-38q-10 -1 -9 4v76l-8 5h-238q-10 0 -9 5v33l4 8l219 237q1 4 12 4h67q10 1 8 -4v-230z" />
    <glyph glyph-name="e" unicode="e" horiz-adv-x="520" 
d="M148 26q3 -23 20 -38q17 -14 63 -14h56q40 0 61.5 18t22.5 55q1 69 -87 69h-52q-40 0 -65 -19l-12 -3h-44q-11 -2 -8 5v194q-3 5 8 5h291l8 -5v-43q1 -7 -8 -5h-237q-11 0 -9 -5v-87q2 -3 9 -2q14 8 35.5 12.5t53.5 4.5h38q67 0 102 -29t39 -91q-3 -55 -41 -90
q-20 -17 -46 -26.5t-59 -9.5h-58q-76 0 -109 30q-32 30 -33 75l10 6h43q8 0 8 -7v1v-1z" />
    <glyph glyph-name="f" unicode="f" horiz-adv-x="520" 
d="M382 42q-3 64 -88 64h-52q-95 0 -95 -67q7 -67 89 -67h58q86 0 88 70v1v-1zM141 136v-5q0 -7 8 -2q17 12 42 20t60 8h48q70 0 106.5 -29t37.5 -82t-39 -89q-40 -35 -111 -35h-58q-75 0 -113 40t-38 113v29v32q0 72 41 119q42 47 114 47h56q137 0 143 -99q1 -4 -7 -4h-48
q-9 0 -9 6q-8 47 -80 47h-45q-62 0 -86 -32q-24 -31 -22 -84z" />
    <glyph glyph-name="g" unicode="g" horiz-adv-x="520" 
d="M426 230q-42 -38 -73.5 -74t-51.5 -72q-40 -70 -45 -154q2 -6 -8 -5h-46q-8 0 -8 5q8 157 163 305q6 8 -2 9h-267q-10 -2 -8 4v45l8 5h333l9 -5v-55l-4 -8v1v-1z" />
    <glyph glyph-name="h" unicode="h" horiz-adv-x="520" 
d="M287 146q78 3 78 56q1 25 -19 40t-61 15h-50q-41 0 -60.5 -15t-19.5 -40q1 -26 20.5 -41t57.5 -15h54zM232 93q-88 -3 -89 -61q-1 -28 21 -44.5t67 -16.5h58q46 0 68 16.5t21 44.5q-2 61 -90 61h-56zM291 302q59 -2 97 -28q19 -13 29.5 -30t9.5 -38q-1 -35 -19.5 -56
t-52.5 -29q-4 -2 1 -4q84 -26 83 -91q0 -48 -42 -76q-40 -28 -104 -28h-66q-65 0 -105 28q-39 28 -41 76q-1 65 83 91q6 2 1 4q-68 17 -72 85q2 43 39 68q39 28 97 28h62z" />
    <glyph glyph-name="i" unicode="i" horiz-adv-x="520" 
d="M145 182q2 -65 87 -65h52q95 0 95 68q-8 67 -89 67h-58q-85 0 -87 -70v1v-1zM387 88v5l-10 2q-17 -13 -42 -21t-60 -8h-47q-71 0 -107 29t-38 83q-1 27 9.5 49.5t30.5 39.5t47 26t63 9h58q75 0 113 -40.5t38 -113.5v-30v-30q0 -75 -40 -119q-39 -47 -115 -47h-56
q-137 0 -143 99q-2 4 9 3h47q8 0 8 -5q8 -47 80 -47h45q62 0 86 32q24 30 24 84z" />
    <glyph glyph-name="j" unicode="j" horiz-adv-x="520" 
d="M279 249h-39q-66 0 -94 -41q-28 -38 -28 -97q0 -58 28 -96q28 -40 94 -40h39q66 0 95 40q15 20 21.5 43.5t6.5 52.5q0 59 -28 97q-29 40 -95 41v1v-1zM463 111q0 -83 -44 -134q-46 -55 -127 -55h-64q-84 0 -127 55q-43 52 -43 134q0 83 43 135q44 56 127 56h64
q42 0 73 -14.5t54 -41.5q44 -53 44 -135z" />
    <glyph glyph-name="k" unicode="k" 
d="M0 1v-1v1z" />
    <glyph glyph-name="l" unicode="l" 
d="M0 1v-1v1z" />
    <glyph glyph-name="m" unicode="m" 
d="M0 1v-1v1z" />
    <glyph glyph-name="n" unicode="n" 
d="M0 1v-1v1z" />
    <glyph glyph-name="o" unicode="o" 
d="M0 1v-1v1z" />
    <glyph glyph-name="p" unicode="p" 
d="M0 1v-1v1z" />
    <glyph glyph-name="q" unicode="q" 
d="M0 1v-1v1z" />
    <glyph glyph-name="r" unicode="r" 
d="M0 1v-1v1z" />
    <glyph glyph-name="s" unicode="s" 
d="M0 1v-1v1z" />
    <glyph glyph-name="t" unicode="t" 
d="M0 1v-1v1z" />
    <glyph glyph-name="u" unicode="u" 
d="M0 1v-1v1z" />
    <glyph glyph-name="v" unicode="v" 
d="M0 1v-1v1z" />
    <glyph glyph-name="w" unicode="w" 
d="M0 1v-1v1z" />
    <glyph glyph-name="x" unicode="x" 
d="M0 1v-1v1z" />
    <glyph glyph-name="y" unicode="y" 
d="M0 1v-1v1z" />
    <glyph glyph-name="z" unicode="z" 
d="M0 1v-1v1z" />
    <glyph glyph-name="braceleft" unicode="{" horiz-adv-x="520" 
d="M26 350v24q0 10 9 10q43 5 70 11t40 14q48 31 42 77v160q0 85 47 138q51 56 162 56h93q10 0 9 -9v-48q1 -10 -10 -10h-99q-76 0 -105 -35q-27 -33 -27 -90v-169q0 -34 -12.5 -59t-40.5 -41q-20 -9 -37 -15.5t-32 -9.5l-7 -4q-1 -3 7 -5q15 -2 32.5 -8t36.5 -17
q53 -29 53 -99v-170q0 -56 27 -89q30 -36 105 -36h99q12 2 10 -9v-48q2 -10 -9 -10h-93q-57 0 -97 15t-65 42q-47 53 -47 137v160q6 49 -42 78q-13 8 -40 14t-70 10q-9 0 -9 11v24v1v-1z" />
    <glyph glyph-name="bar" unicode="|" horiz-adv-x="520" 
d="M292 -130q1 -11 -9 -11h-47q-11 0 -9 10v961q-1 10 9 10h47q10 0 9 -9v-961v1v-1z" />
    <glyph glyph-name="braceright" unicode="}" horiz-adv-x="520" 
d="M494 350v-24q0 -11 -9 -11q-42 -4 -69.5 -10t-39.5 -14q-48 -28 -43 -78v-160q0 -84 -47 -137q-24 -27 -64 -42t-97 -15h-94q-9 0 -9 10v48q0 10 10 9h100q74 0 104 36q28 34 28 89v170q0 34 12 59t40 40q38 20 69 25q8 1 8 5q0 3 -8 4q-15 3 -32 9.5t-37 15.5
q-52 30 -52 100v169q0 56 -28 90q-27 35 -104 35h-100q-10 0 -10 10v48q0 9 9 9h94q111 0 161 -56q47 -53 47 -138v-160q-4 -47 43 -77q13 -8 40 -14t69 -11q9 0 9 -10v-24v1v-1z" />
    <glyph glyph-name="asciitilde" unicode="~" 
d="M0 1v-1v1z" />
    <glyph glyph-name="Adieresis" unicode="&#xc4;" 
d="M0 1v-1v1z" />
    <glyph glyph-name="Aring" unicode="&#xc5;" 
d="M0 1v-1v1z" />
    <glyph glyph-name="Ccedilla" unicode="&#xc7;" 
d="M0 1v-1v1z" />
    <glyph glyph-name="Eacute" unicode="&#xc9;" 
d="M0 1v-1v1z" />
    <glyph glyph-name="Ntilde" unicode="&#xd1;" 
d="M0 1v-1v1z" />
    <glyph glyph-name="Odieresis" unicode="&#xd6;" 
d="M0 1v-1v1z" />
    <glyph glyph-name="Udieresis" unicode="&#xdc;" 
d="M0 1v-1v1z" />
    <glyph glyph-name="aacute" unicode="&#xe1;" 
d="M0 1v-1v1z" />
    <glyph glyph-name="agrave" unicode="&#xe0;" 
d="M0 1v-1v1z" />
    <glyph glyph-name="acircumflex" unicode="&#xe2;" 
d="M0 1v-1v1z" />
    <glyph glyph-name="adieresis" unicode="&#xe4;" 
d="M0 1v-1v1z" />
    <glyph glyph-name="atilde" unicode="&#xe3;" 
d="M0 1v-1v1z" />
    <glyph glyph-name="aring" unicode="&#xe5;" 
d="M0 1v-1v1z" />
    <glyph glyph-name="ccedilla" unicode="&#xe7;" 
d="M0 1v-1v1z" />
    <glyph glyph-name="eacute" unicode="&#xe9;" 
d="M0 1v-1v1z" />
    <glyph glyph-name="egrave" unicode="&#xe8;" 
d="M0 1v-1v1z" />
    <glyph glyph-name="ecircumflex" unicode="&#xea;" 
d="M0 1v-1v1z" />
    <glyph glyph-name="edieresis" unicode="&#xeb;" 
d="M0 1v-1v1z" />
    <glyph glyph-name="iacute" unicode="&#xed;" 
d="M0 1v-1v1z" />
    <glyph glyph-name="igrave" unicode="&#xec;" 
d="M0 1v-1v1z" />
    <glyph glyph-name="icircumflex" unicode="&#xee;" 
d="M0 1v-1v1z" />
    <glyph glyph-name="idieresis" unicode="&#xef;" 
d="M0 1v-1v1z" />
    <glyph glyph-name="ntilde" unicode="&#xf1;" 
d="M0 1v-1v1z" />
    <glyph glyph-name="oacute" unicode="&#xf3;" 
d="M0 1v-1v1z" />
    <glyph glyph-name="ograve" unicode="&#xf2;" 
d="M0 1v-1v1z" />
    <glyph glyph-name="ocircumflex" unicode="&#xf4;" 
d="M0 1v-1v1z" />
    <glyph glyph-name="odieresis" unicode="&#xf6;" 
d="M0 1v-1v1z" />
    <glyph glyph-name="otilde" unicode="&#xf5;" 
d="M0 1v-1v1z" />
    <glyph glyph-name="uacute" unicode="&#xfa;" 
d="M0 1v-1v1z" />
    <glyph glyph-name="ugrave" unicode="&#xf9;" 
d="M0 1v-1v1z" />
    <glyph glyph-name="ucircumflex" unicode="&#xfb;" 
d="M0 1v-1v1z" />
    <glyph glyph-name="udieresis" unicode="&#xfc;" 
d="M0 1v-1v1z" />
    <glyph glyph-name="degree" unicode="&#xb0;" horiz-adv-x="520" 
d="M148 548v-46q0 -51 33 -78q31 -26 79 -26t80 26q31 26 31 78v46q0 50 -31 78q-32 27 -80 27q-49 0 -79 -27q-32 -27 -33 -78v1v-1zM260 715q74 -1 124 -47q24 -23 37 -51.5t13 -63.5v-57q0 -67 -50 -114q-51 -46 -124 -46q-74 0 -123 46q-51 46 -51 114v57q0 69 51 115
q49 46 123 47z" />
    <glyph glyph-name="cent" unicode="&#xa2;" horiz-adv-x="520" 
d="M445 229q-5 -25 -17.5 -46t-30.5 -40q-35 -39 -98 -49q-8 0 -8 -10v-100q2 -10 -9 -8h-51q-11 -2 -8 8v105q0 10 -10 10q-70 19 -106 80q-35 59 -35 135v75q0 80 40 142q41 61 116 76q7 0 7 11v98q-2 10 9 9h51q10 0 10 -9v-99q0 -11 8 -11q109 -30 132 -131
q6 -15 -7 -13h-51q-10 -1 -13 11q-17 65 -108 73q-61 -1 -93 -46q-31 -44 -31 -107v-82q0 -66 32 -108q33 -45 97 -45q45 0 70 23q26 23 33 49q3 13 13 12h51q13 0 7 -13z" />
    <glyph glyph-name="sterling" unicode="&#xa3;" horiz-adv-x="520" 
d="M177 190q-1 24 -4.5 47.5t-8.5 46.5q-3 10 -12 9h-86q-11 -2 -8 10v48q-3 11 8 8h62q12 0 6 9q-20 41 -31 79t-12 74q-2 39 11.5 72.5t38.5 62.5t62 45t87 17q42 0 73.5 -12t54.5 -34q47 -46 56 -109q3 -13 -8 -11h-56q-11 -3 -11 10q-14 82 -113 86q-65 -2 -94 -38
q-28 -38 -27 -87q1 -32 11.5 -70.5t30.5 -84.5q4 -9 15 -9h153q11 3 9 -8v-48q0 -11 -9 -10h-134q-10 0 -7 -9q7 -24 11.5 -45.5t3.5 -41.5q-1 -41 -13 -71t-32 -50q-6 -6 1 -8h261q11 3 9 -8v-50q0 -12 -9 -10h-400q-11 -2 -8 10v50q-2 11 6 8q107 -6 113 122v1v-1z" />
    <glyph glyph-name="section" unicode="&#xa7;" 
d="M0 1v-1v1z" />
    <glyph glyph-name="paragraph" unicode="&#xb6;" 
d="M0 1v-1v1z" />
    <glyph glyph-name="germandbls" unicode="&#xdf;" 
d="M0 1v-1v1z" />
    <glyph glyph-name="registered" unicode="&#xae;" 
d="M0 1v-1v1z" />
    <glyph glyph-name="copyright" unicode="&#xa9;" 
d="M0 1v-1v1z" />
    <glyph glyph-name="acute" unicode="&#xb4;" 
d="M0 1v-1v1z" />
    <glyph glyph-name="dieresis" unicode="&#xa8;" 
d="M0 1v-1v1z" />
    <glyph glyph-name="AE" unicode="&#xc6;" 
d="M0 1v-1v1z" />
    <glyph glyph-name="Oslash" unicode="&#xd8;" 
d="M0 1v-1v1z" />
    <glyph glyph-name="plusminus" unicode="&#xb1;" horiz-adv-x="520" 
d="M294 622v-141q-2 -11 10 -8h140q11 0 10 -10v-48q1 -9 -9 -9h-141q-12 2 -10 -9v-142q2 -12 -9 -10h-50q-10 -2 -8 9v143q0 10 -10 9h-142q-10 0 -9 10v46q0 11 11 11h140q10 -3 10 8v143q-2 10 9 9h48q11 0 10 -11v1v-1zM445 133q10 1 9 -9v-52q1 -10 -9 -10h-370
q-10 0 -9 10v52q-2 10 9 9h370z" />
    <glyph glyph-name="yen" unicode="&#xa5;" horiz-adv-x="520" 
d="M226 9v138q0 12 -10 9h-148q-11 0 -8 10v43q-1 10 9 10h147q10 -3 10 9v16l-4 20l-16 36q-3 9 -13 9h-125q-10 -2 -8 8v45q-2 10 9 9h97q10 0 4 11l-132 305q-4 12 4 11h57l14 -9l141 -343q5 -14 11 0l141 343q5 12 15 9h57q9 1 3 -10l-132 -306q-6 -11 4 -11h96
q12 2 10 -9v-45q2 -10 -9 -8h-125q-9 0 -12 -9l-16 -36l-4 -20v-16q-2 -12 9 -9h147q11 0 10 -9v-45q1 -9 -9 -9h-148q-11 3 -9 -9v-140q0 -12 -10 -11h-48q-10 0 -9 13v1v-1z" />
    <glyph glyph-name="mu" unicode="&#xb5;" horiz-adv-x="520" 
d="M70 208l59 58l78 78q6 6 -1 11l-78 80l-58 58q-8 5 1 13l33 33l14 -1l135 -136q6 -6 13 0l136 137q6 7 13 0l34 -34q6 -6 0 -12l-136 -138q-5 -5 0 -11l136 -136q7 -5 0 -15l-34 -34q-6 -6 -13 0l-136 138q-7 6 -13 0l-137 -138q-6 -6 -12 2l-33 31q-9 8 -1 16v1v-1z" />
    <glyph glyph-name="mu" unicode="&#x3bc;" horiz-adv-x="520" 
d="M70 208l59 58l78 78q6 6 -1 11l-78 80l-58 58q-8 5 1 13l33 33l14 -1l135 -136q6 -6 13 0l136 137q6 7 13 0l34 -34q6 -6 0 -12l-136 -138q-5 -5 0 -11l136 -136q7 -5 0 -15l-34 -34q-6 -6 -13 0l-136 138q-7 6 -13 0l-137 -138q-6 -6 -12 2l-33 31q-9 8 -1 16v1v-1z" />
    <glyph glyph-name="ordfeminine" unicode="&#xaa;" 
d="M0 1v-1v1z" />
    <glyph glyph-name="ordmasculine" unicode="&#xba;" 
d="M0 1v-1v1z" />
    <glyph glyph-name="ae" unicode="&#xe6;" 
d="M0 1v-1v1z" />
    <glyph glyph-name="oslash" unicode="&#xf8;" 
d="M0 1v-1v1z" />
    <glyph glyph-name="questiondown" unicode="&#xbf;" 
d="M0 1v-1v1z" />
    <glyph glyph-name="exclamdown" unicode="&#xa1;" 
d="M0 1v-1v1z" />
    <glyph glyph-name="logicalnot" unicode="&#xac;" horiz-adv-x="520" 
d="M460 385q10 1 9 -9v-52q0 -10 -9 -10h-399q-11 0 -10 10v52q-1 10 10 9h399v1v-1z" />
    <glyph glyph-name="guillemotleft" unicode="&#xab;" 
d="M0 1v-1v1z" />
    <glyph glyph-name="guillemotright" unicode="&#xbb;" 
d="M0 1v-1v1z" />
    <glyph glyph-name="Agrave" unicode="&#xc0;" 
d="M0 1v-1v1z" />
    <glyph glyph-name="Atilde" unicode="&#xc3;" 
d="M0 1v-1v1z" />
    <glyph glyph-name="Otilde" unicode="&#xd5;" 
d="M0 1v-1v1z" />
    <glyph glyph-name="divide" unicode="&#xf7;" horiz-adv-x="520" 
d="M315 541q-3 -52 -53 -56q-50 4 -55 56q5 53 55 56q50 -3 53 -56v1v-1zM476 383q10 1 9 -9v-52q1 -10 -8 -10h-430q-10 0 -10 11v50q0 10 12 10h427zM315 157q-3 -52 -53 -55q-50 3 -55 55q5 53 55 56q50 -3 53 -56z" />
    <glyph glyph-name="ydieresis" unicode="&#xff;" 
d="M0 1v-1v1z" />
    <glyph glyph-name="periodcentered" unicode="&#xb7;" horiz-adv-x="260" 
d="M188 350q-3 -56 -59 -61q-55 4 -59 61q5 56 59 59q56 -3 59 -59v1v-1z" />
    <glyph glyph-name="periodcentered" unicode="&#x2219;" horiz-adv-x="260" 
d="M188 350q-3 -56 -59 -61q-55 4 -59 61q5 56 59 59q56 -3 59 -59v1v-1z" />
    <glyph glyph-name="Acircumflex" unicode="&#xc2;" 
d="M0 1v-1v1z" />
    <glyph glyph-name="Ecircumflex" unicode="&#xca;" 
d="M0 1v-1v1z" />
    <glyph glyph-name="Aacute" unicode="&#xc1;" 
d="M0 1v-1v1z" />
    <glyph glyph-name="Edieresis" unicode="&#xcb;" 
d="M0 1v-1v1z" />
    <glyph glyph-name="Egrave" unicode="&#xc8;" 
d="M0 1v-1v1z" />
    <glyph glyph-name="Iacute" unicode="&#xcd;" 
d="M0 1v-1v1z" />
    <glyph glyph-name="Icircumflex" unicode="&#xce;" 
d="M0 1v-1v1z" />
    <glyph glyph-name="Idieresis" unicode="&#xcf;" 
d="M0 1v-1v1z" />
    <glyph glyph-name="Igrave" unicode="&#xcc;" 
d="M0 1v-1v1z" />
    <glyph glyph-name="Oacute" unicode="&#xd3;" 
d="M0 1v-1v1z" />
    <glyph glyph-name="Ocircumflex" unicode="&#xd4;" 
d="M0 1v-1v1z" />
    <glyph glyph-name="Ograve" unicode="&#xd2;" 
d="M0 1v-1v1z" />
    <glyph glyph-name="Uacute" unicode="&#xda;" 
d="M0 1v-1v1z" />
    <glyph glyph-name="Ucircumflex" unicode="&#xdb;" horiz-adv-x="520" 
d="M284 -17q-103 3 -150 65q-48 61 -48 160v28q2 12 -9 10h-47q-11 -2 -9 10v43q0 10 11 10h45q11 -2 9 8v65q1 10 -9 9h-47q-11 -2 -9 9v43q0 11 11 11h45q10 -2 9 9v12v17q0 95 48 157q49 66 150 67q78 0 125 -41t57 -100q3 -10 -9 -10h-51q-11 0 -11 11q-9 34 -36.5 53
t-75.5 20q-34 2 -58.5 -9.5t-39.5 -33.5q-30 -40 -30 -110v-19v-14q-2 -11 9 -9h168q10 1 10 -10v-45q0 -9 -9 -8h-169q-11 1 -9 -9v-65q-2 -10 9 -8h168q10 1 10 -9v-45q0 -10 -9 -9h-169q-11 2 -9 -10v-32q0 -67 31 -110q15 -22 39 -34t58 -10q93 3 112 74q0 10 11 10h51
q12 1 9 -9q-10 -59 -57 -100q-47 -39 -125 -42v1v-1z" />
    <glyph glyph-name="Ugrave" unicode="&#xd9;" 
d="M0 1v-1v1z" />
    <glyph glyph-name="macron" unicode="&#xaf;" 
d="M0 1v-1v1z" />
    <glyph glyph-name="macron" unicode="&#x2c9;" 
d="M0 1v-1v1z" />
    <glyph glyph-name="cedilla" unicode="&#xb8;" 
d="M0 1v-1v1z" />
    <glyph glyph-name="uni0003" 
d="M0 1v-1v1z" />
    <glyph glyph-name="uni0004" 
d="M0 1v-1v1z" />
    <glyph glyph-name="uni0005" 
d="M0 1v-1v1z" />
    <glyph glyph-name="uni0006" 
d="M0 1v-1v1z" />
    <glyph glyph-name="uni0007" 
d="M0 1v-1v1z" />
    <glyph glyph-name="uni0008" 
d="M0 1v-1v1z" />
    <glyph glyph-name="uni0009" unicode="&#x9;" 
d="M0 1v-1v1z" />
    <glyph glyph-name="uni000A" unicode="&#xa;" 
d="M0 1v-1v1z" />
    <glyph glyph-name="uni000B" 
d="M0 1v-1v1z" />
    <glyph glyph-name="uni000C" 
d="M0 1v-1v1z" />
    <glyph glyph-name="uni000D" unicode="&#xd;" horiz-adv-x="0" 
d="M0 1v-1v1z" />
    <glyph glyph-name="uni000E" 
d="M0 1v-1v1z" />
    <glyph glyph-name="uni000F" 
d="M0 1v-1v1z" />
    <glyph glyph-name="uni0010" 
d="M0 1v-1v1z" />
    <glyph glyph-name="uni0011" 
d="M0 1v-1v1z" />
    <glyph glyph-name="uni0012" 
d="M0 1v-1v1z" />
    <glyph glyph-name="uni0013" 
d="M0 1v-1v1z" />
    <glyph glyph-name="uni0014" 
d="M0 1v-1v1z" />
    <glyph glyph-name="uni0015" 
d="M0 1v-1v1z" />
    <glyph glyph-name="uni0016" 
d="M0 1v-1v1z" />
    <glyph glyph-name="uni0017" 
d="M0 1v-1v1z" />
    <glyph glyph-name="uni0018" 
d="M0 1v-1v1z" />
    <glyph glyph-name="uni0019" 
d="M0 1v-1v1z" />
    <glyph glyph-name="uni001A" 
d="M0 1v-1v1z" />
    <glyph glyph-name="uni001B" 
d="M0 1v-1v1z" />
    <glyph glyph-name="uni001C" horiz-adv-x="520" 
d="M0 1v-1v1z" />
    <glyph glyph-name="uni001D" horiz-adv-x="520" 
d="M0 1v-1v1z" />
    <glyph glyph-name="uni001E" 
d="M0 1v-1v1z" />
    <glyph glyph-name="uni001F" 
d="M0 1v-1v1z" />
    <glyph glyph-name="uni0025" unicode="%" horiz-adv-x="520" 
d="M461 109v54q0 67 -65 67q-30 0 -47 -17t-17 -50v-54q0 -34 17 -51t47 -17q62 0 65 68v1v-1zM396 -16q-53 1 -84 36q-17 17 -26 38.5t-9 47.5v60q0 52 35 87q32 34 84 34q54 0 86 -34q34 -36 34 -87v-60q0 -52 -34 -86q-31 -34 -86 -36zM59 592v-55q0 -35 17 -52t47 -17
q31 0 48 17.5t17 51.5v55q0 34 -17 51.5t-48 17.5q-61 0 -64 -69zM123 718q52 -1 86 -35q33 -36 33 -88v-61q0 -52 -33 -88q-33 -35 -86 -35q-26 0 -47 9t-38 26q-34 36 -34 88v61q0 52 34 88q34 34 85 35zM89 10q-5 -12 -12 -11h-43q-12 0 -6 10l403 684q3 12 12 10h43
q12 2 6 -9z" />
    <glyph glyph-name="currency" unicode="&#xa4;" 
d="M284 -17q-103 3 -150 65q-48 61 -48 160v28q2 12 -9 10h-47q-11 -2 -9 10v43q0 10 11 10h45q11 -2 9 8v65q1 10 -9 9h-47q-11 -2 -9 9v43q0 11 11 11h45q10 -2 9 9v12v17q0 95 48 157q49 66 150 67q78 0 125 -41t57 -100q3 -10 -9 -10h-51q-11 0 -11 11q-9 34 -36.5 53
t-75.5 20q-34 2 -58.5 -9.5t-39.5 -33.5q-30 -40 -30 -110v-19v-14q-2 -11 9 -9h168q10 1 10 -10v-45q0 -9 -9 -8h-169q-11 1 -9 -9v-65q-2 -10 9 -8h168q10 1 10 -9v-45q0 -10 -9 -9h-169q-11 2 -9 -10v-32q0 -67 31 -110q15 -22 39 -34t58 -10q93 3 112 74q0 10 11 10h51
q12 1 9 -9q-10 -59 -57 -100q-47 -39 -125 -42v1v-1z" />
    <glyph glyph-name="uni007F" 
d="M0 1v-1v1z" />
    <glyph glyph-name="glyph208" horiz-adv-x="520" 
d="M0 1v-1v1z" />
    <glyph glyph-name="glyph209" horiz-adv-x="520" 
d="M0 1v-1v1z" />
    <glyph glyph-name="glyph210" horiz-adv-x="520" 
d="M0 1v-1v1z" />
    <glyph glyph-name="glyph211" horiz-adv-x="520" 
d="M0 1v-1v1z" />
    <glyph glyph-name="glyph212" horiz-adv-x="520" 
d="M0 1v-1v1z" />
    <glyph glyph-name="glyph213" horiz-adv-x="520" 
d="M0 1v-1v1z" />
    <glyph glyph-name="glyph214" horiz-adv-x="520" 
d="M0 1v-1v1z" />
    <glyph glyph-name="glyph215" horiz-adv-x="520" 
d="M0 1v-1v1z" />
    <glyph glyph-name="glyph216" horiz-adv-x="520" 
d="M0 1v-1v1z" />
    <glyph glyph-name="glyph217" horiz-adv-x="520" 
d="M70 208l59 58l78 78q6 6 -1 11l-78 80l-58 58q-8 5 1 13l33 33l14 -1l135 -136q6 -6 13 0l136 137q6 7 13 0l34 -34q6 -6 0 -12l-136 -138q-5 -5 0 -11l136 -136q7 -5 0 -15l-34 -34q-6 -6 -13 0l-136 138q-7 6 -13 0l-137 -138q-6 -6 -12 2l-33 31q-9 8 -1 16v1v-1z" />
    <glyph glyph-name="glyph218" 
d="M0 1v-1v1z" />
    <glyph glyph-name="uni0085" unicode="&#x85;" 
d="M0 1v-1v1z" />
    <glyph glyph-name="uni00AD" unicode="&#xad;" horiz-adv-x="520" 
d="M0 1v-1v1z" />
    <glyph glyph-name="glyph221" horiz-adv-x="520" 
d="M0 1v-1v1z" />
    <glyph glyph-name="glyph222" horiz-adv-x="520" 
d="M0 1v-1v1z" />
    <glyph glyph-name="glyph223" horiz-adv-x="520" 
d="M0 1v-1v1z" />
  </font>
</defs>
</svg>
