<svg width="560" height="578" fill="none" xmlns="http://www.w3.org/2000/svg">
  <path opacity=".3" d="M79.527 19.996l-3.714 16.002-5.328 22.853S41.178 93.73 12.678 73.368C-8.677 58.133 1.94 46.347 8.64 41.364c.12-.096.282-.192.403-.287-.565-.623-1.17-1.486-1.776-2.683-3.754-7.235.242-7.522 3.553-6.804.888.192 1.695-.67 1.655-1.724-.04-.671-.04-1.342-.04-2.013 0-5.174 4.4-3.785 7.629-2.06 1.413.767 2.987-.623 2.745-2.443v-.048c-1.413-11.02 2.947-14.038 2.947-14.038s5.41-5.414 11.424 3.402c.646.958 1.292 2.06 1.978 3.401.04.048.08.144.121.192 1.332 2.73 3.27 3.018 5.087 2.348a5.434 5.434 0 0 0 1.614-.863c2.382-1.677 3.835-4.839 3.835-8.24v-.671c0-1.15.162-2.204.444-3.162 2.1-6.708 10.658-8.097 13.605-.719.363.91.686 1.869.968 2.731.525 1.677 2.422 2.012 3.35.575a123.369 123.369 0 0 1 2.746-4.024c7.549-10.54 8.598 15.762 8.598 15.762z" transform="rotate(-13.185 1201.648 -844.459)" fill="url(#paint0_linear)"/>
  <mask id="a" maskUnits="userSpaceOnUse" x="0" y="172" width="560" height="406">
    <path transform="translate(0 172)" fill="url(#paint1_linear)" d="M0 0h560v406H0z"/>
  </mask>
  <g mask="url(#a)">
    <path d="M110.92 278.3l-39.543 10.927C30.144 300.621 3.12 340.068 7.385 382.634c4.5 44.885 42.273 79.061 87.383 79.061h137.81a240.14 240.14 0 0 0 126.976-36.316l77.587-48.337a184.24 184.24 0 0 0 52.998-49.985l17.514-24.76c52.124-73.687 30.982-176.101-46.06-223.125-72.171-44.05-166.3-22.549-212.187 48.469l-60.208 93.18A136.47 136.47 0 0 1 110.92 278.3z" fill="url(#paint2_linear)" transform="translate(-7 116.305)"/>
  </g>
  <path d="M0 0h110.094v172.757H0V0z" transform="translate(182.886 294.113)" fill="url(#paint3_linear)"/>
  <path d="M182.886 363.822h37.371v89.914h-37.371v-89.914z" fill="#4E58C3"/>
  <path d="M220.257 322.401h35.351v116.182h-35.351V322.401z" fill="#7CF6FF"/>
  <path opacity=".5" d="M255.609 294.113h37.371v145.48H255.61v-145.48z" fill="#7CF6FF"/>
  <path d="M0 10.101C0 5.34 0 2.96 1.48 1.48 2.958 0 5.34 0 10.1 0h81.812v133.356H10.102c-4.762 0-7.143 0-8.623-1.479C0 130.398 0 128.017 0 123.255V10.102z" transform="matrix(1 0 0 -1 90.973 466.869)" fill="url(#paint4_linear)"/>
  <path d="M113.595 1.848a2.02 2.02 0 0 1 3.097 0l110.815 132.231c1.102 1.315.167 3.318-1.548 3.318H4.329c-1.715 0-2.65-2.003-1.548-3.318L113.595 1.848z" transform="translate(181.876 329.472)" fill="url(#paint5_linear)"/>
  <path transform="translate(122.285 466.87)" fill="url(#paint6_linear)" d="M0 0h228.268v111.13H0z"/>
  <path d="M0 0h220.187v111.13H6.061A6.06 6.06 0 0 1 0 105.069V0z" transform="translate(122.285 466.87)" fill="url(#paint7_linear)"/>
  <path d="M0 12.122C0 6.408 0 3.55 1.775 1.775 3.55 0 6.408 0 12.122 0h151.502c5.714 0 8.571 0 10.347 1.775 1.775 1.775 1.775 4.633 1.775 10.347V217.21c0 5.715 0 8.572-1.775 10.347-1.776 1.775-4.633 1.775-10.347 1.775H12.122c-5.714 0-8.572 0-10.347-1.775C0 225.782 0 222.925 0 217.21V12.122z" transform="translate(292.98 235.517)" fill="url(#paint8_linear)"/>
  <path d="M214.53 74.76c0 41.289-33.463 74.761-74.742 74.761H.403c-6.36-10.997 64.642-61.144 64.642-74.76C65.045 33.47 98.51 0 139.788 0c41.279 0 74.742 33.471 74.742 74.76z" transform="translate(345.098 428.479)" fill="url(#paint9_linear)"/>
  <path opacity=".54" d="M.505 133.356L0 65.668C42.07 55.148 72.217 28.793 91.913 0v133.356H.505z" transform="translate(90.973 333.514)" fill="url(#paint10_linear)"/>
  <path fill-rule="evenodd" clip-rule="evenodd" d="M43.978 37.302c-1.521 0-2.971.298-4.299.838-3.73 1.518-8.185 2.968-11.675.959l-1.412-.813c-2.66-1.53-3.445-4.915-3.445-7.978 0-1.997.68-4.055 2.414-5.053l3.433-1.975c3.798-2.186 8.628-.938 12.942-.15.662.12 1.345.184 2.042.184 6.394 0 11.574-5.218 11.574-11.657C55.552 5.217 50.372 0 43.978 0c-6.393 0-11.573 5.218-11.573 11.657 0 1.998-.68 4.057-2.417 5.056l-3.43 1.974c-3.799 2.185-8.628.937-12.941.149a11.355 11.355 0 0 0-2.044-.185C5.18 18.651 0 23.87 0 30.308c0 6.44 5.18 11.657 11.573 11.657 5.78 0 4.23-.765 7.104-.765 3.385.128 3.011.326 5.997 1.92.163.088.24.133.393.222l6.37 3.719c.666.389.968 1.128.968 1.898 0 6.44 5.18 11.657 11.573 11.657 6.394 0 11.574-5.217 11.574-11.657 0-6.439-5.18-11.657-11.574-11.657z" transform="translate(107.134 380.996)" fill="url(#paint11_linear)"/>
  <path opacity=".3" d="M58.582 46.978L0 0v102.038c9.932 2.862 29.493 6.769 40.401-6.567 10.909-13.336 17.844-38.727 18.18-48.493z" transform="translate(468.726 302.195)" fill="url(#paint12_linear)"/>
  <ellipse cx="74.743" cy="74.76" rx="74.743" ry="74.76" transform="translate(275.809 428.479)" fill="url(#paint13_linear)"/>
  <path opacity=".5" fill-rule="evenodd" clip-rule="evenodd" d="M312.171 503.24c0-21.174 17.212-38.39 38.38-38.39 21.367 0 38.579 17.216 38.38 38.39 0 21.175-17.211 38.39-38.38 38.39-21.168 0-38.38-17.215-38.38-38.39zm6.529 0c0 17.612 14.244 31.86 31.851 31.86 17.608 0 31.852-14.248 31.852-31.86 0-17.612-14.244-31.86-31.852-31.86-17.607 0-31.851 14.248-31.851 31.86zm44.315-8.31c-.198 0-7.716-12.468-10.288-16.821 12.86.989 23.147 11.873 23.543 25.132 0 11.28-7.518 20.778-17.608 24.142l-11.87-19.789c-1.978-3.364-.99-7.52 2.374-9.498l-4.748-8.114c-7.517 4.552-9.891 14.05-5.54 21.57 0 0 6.332 10.686 10.09 16.82-13.057-.989-23.344-11.873-23.344-25.131 0-11.28 7.32-20.976 17.607-24.143l11.87 19.79c1.979 3.363.99 7.519-2.374 9.498l4.748 8.113c7.518-4.551 9.892-14.05 5.54-21.57z" fill="#fff"/>
  <path opacity=".23" d="M14.14 91.9C30.302 75.737 9.595 25.729 0 10.575 15.992 1.986 50.098-11.35 54.542 18.15c6.06 29.804-18.18 65.163-40.402 73.75z" transform="translate(370.248 478.017)" fill="url(#paint14_linear)"/>
  <path d="M198.625 162.875l7 13.75 14.231-2.896-12.662-25.89-15.32-16.589c-1.888 1-3.949 7.875-1.874 8.875 2.074 1 3.542 4.286 4.023 5.041l4.602 17.71z" fill="#FFE3D3"/>
  <rect width="182.347" height="62.994" rx="31.497" transform="matrix(.86597 -.5 -.49991 -.86613 381.17 511.383)" fill="url(#paint15_linear)"/>
  <rect width="151.591" height="40.826" rx="20.413" transform="matrix(.86597 -.5 -.49991 -.86613 388.959 494.084)" fill="#fff"/>
  <path d="M12.697 13.23c0 2.186-.625 3.862-1.873 5.025C9.582 19.418 7.786 20 5.434 20H1.673V6.713h4.172c2.169 0 3.853.572 5.053 1.717 1.2 1.146 1.8 2.745 1.8 4.8zm-2.927.072c0-2.854-1.26-4.28-3.78-4.28h-1.5v8.651h1.208c2.715 0 4.072-1.457 4.072-4.371zm20.532.036c0 2.2-.545 3.89-1.635 5.072-1.091 1.181-2.654 1.772-4.69 1.772-2.036 0-3.599-.591-4.69-1.772-1.09-1.182-1.636-2.879-1.636-5.09 0-2.212.546-3.899 1.636-5.062 1.097-1.17 2.666-1.754 4.708-1.754 2.042 0 3.602.587 4.68 1.763 1.085 1.175 1.627 2.866 1.627 5.071zm-9.697 0c0 1.485.282 2.603.845 3.354.564.751 1.406 1.127 2.527 1.127 2.248 0 3.372-1.494 3.372-4.48 0-2.994-1.118-4.49-3.354-4.49-1.12 0-1.966.378-2.536 1.136-.569.75-.854 1.869-.854 3.353zM47.635 20h-3.58l-5.78-10.052h-.082c.115 1.775.173 3.042.173 3.8V20h-2.518V6.713h3.554l5.771 9.952h.064c-.091-1.727-.137-2.948-.137-3.663v-6.29h2.536V20zm14.28 0l-.963-3.163h-4.844L55.145 20h-3.036L56.8 6.658h3.444L64.951 20h-3.035zm-1.635-5.526c-.891-2.866-1.394-4.486-1.509-4.862-.11-.376-.188-.673-.236-.89-.2.775-.773 2.693-1.718 5.752h3.463zM74.55 20h-2.817V9.058h-3.608V6.713h10.033v2.345H74.55V20zm16.098 0h-7.653V6.713h7.653V9.02h-4.835v2.918h4.498v2.308h-4.498v3.426h4.835V20z" transform="rotate(-29.773 1046.369 -521.364)" fill="url(#paint16_linear)"/>
  <path d="M415.474 461.241l-.482-.15v.002l.482.148zm-7.077 6.06l-.439.25.251.439.439-.251-.251-.438zm-6.598-11.534l-.25-.438-.44.25.251.44.439-.252zm3.592.605l-.251-.438-.439.25.251.439.439-.251zm4.296 7.51l-.438.25.25.44.439-.252-.251-.438zm4.478-7.682c1.038 1.813 1.28 3.431.827 4.892l.965.3c.558-1.8.22-3.71-.915-5.694l-.877.502zm.827 4.893c-.45 1.464-1.608 2.773-3.58 3.9l.502.878c2.109-1.207 3.492-2.692 4.043-4.481l-.965-.297zm-3.58 3.9l-3.266 1.87.502.876 3.266-1.868-.502-.877zm-2.577 2.057l-6.598-11.534-.877.502 6.598 11.533.877-.501zm-6.785-10.844l3.62-2.072-.501-.877-3.62 2.072.5.877zm3.62-2.072c1.806-1.033 3.419-1.325 4.868-.966l.242-.98c-1.771-.439-3.651-.052-5.611 1.07l.502.876zm4.868-.966c1.445.357 2.658 1.339 3.627 3.032l.877-.502c-1.07-1.872-2.487-3.072-4.262-3.51l-.242.98zm2 4.047c-.74-1.294-1.626-2.183-2.69-2.545-1.08-.367-2.23-.154-3.407.519l.502.877c1.011-.579 1.856-.685 2.58-.44.738.251 1.461.907 2.138 2.09l.877-.501zm-6.097-2.026l-1.301.745.501.876 1.302-.744-.502-.877zm-1.489 1.434l4.297 7.51.876-.502-4.296-7.51-.877.502zm4.986 7.697l1.049-.6-.502-.877-1.049.6.502.877zm1.049-.6c1.254-.717 2.08-1.638 2.349-2.788.267-1.14-.04-2.392-.798-3.717l-.877.501c.69 1.205.878 2.188.691 2.986-.184.788-.764 1.51-1.867 2.141l.502.877zm6.869-15.359l-.491-.117.491.117zm8.154-4.654l-.154.481h.001l.153-.48zm-5.411 5.075l.5.065.001-.002-.501-.063zm8.902-1.23c1.053 1.84 1.367 3.447 1.045 4.85l.984.227c.398-1.73-.02-3.6-1.152-5.578l-.877.501zm1.045 4.85c-.32 1.396-1.27 2.581-2.95 3.542l.502.877c1.855-1.061 3.033-2.453 3.432-4.192l-.984-.227zm-2.95 3.542c-1.679.96-3.182 1.178-4.547.747l-.304.964c1.702.537 3.499.227 5.353-.834l-.501-.877zm-4.547.747c-1.373-.433-2.602-1.523-3.66-3.374l-.878.501c1.138 1.988 2.54 3.302 4.234 3.837l.304-.964zm-3.66-3.374c-1.06-1.852-1.371-3.454-1.042-4.839l-.982-.234c-.409 1.718.01 3.587 1.146 5.574l.877-.501zm-1.042-4.839c.33-1.389 1.289-2.574 2.975-3.539l-.501-.876c-1.859 1.063-3.044 2.451-3.456 4.181l.982.234zm2.975-3.539c1.686-.964 3.185-1.181 4.534-.75l.307-.963c-1.69-.539-3.484-.227-5.342.837l.501.876zm4.535-.75c1.365.43 2.588 1.517 3.644 3.363l.877-.501c-1.134-1.983-2.53-3.293-4.216-3.825l-.305.963zm-4.773 8.179c.762 1.332 1.631 2.27 2.637 2.704l.4-.928c-.718-.31-1.448-1.033-2.16-2.278l-.877.502zm2.637 2.704c1.038.447 2.123.316 3.204-.302l-.502-.877c-.865.495-1.614.548-2.301.251l-.4.928zm3.204-.302c1.082-.619 1.748-1.486 1.89-2.603.136-1.084-.235-2.311-1-3.65l-.877.502c.717 1.254.971 2.25.874 3.021-.093.737-.52 1.356-1.389 1.853l.502.877zm.89-6.253c-.768-1.34-1.637-2.284-2.638-2.719-1.032-.448-2.114-.317-3.192.3l.501.877c.863-.494 1.608-.546 2.289-.25.713.31 1.443 1.037 2.163 2.294l.876-.502zm-5.83-2.42c-1.082.62-1.745 1.494-1.887 2.622l1.002.126c.095-.753.523-1.376 1.386-1.87l-.501-.877zm-1.887 2.62c-.142 1.09.224 2.318.986 3.65l.877-.501c-.712-1.244-.962-2.24-.861-3.02l-1.002-.13zm28.195-4.24l.251.438.438-.25-.25-.44-.439.252zm-3.108 1.778l-.255.436.252.147.254-.145-.25-.438zm-10.008-5.855l.255-.436-.253-.147-.253.145.25.438zm-.071.04l-.251-.438-.468.268.297.45.422-.28zm5.14 8.64l.252.438.438-.25-.25-.439-.44.25zm-2.184 1.25l-.439.25.251.44.438-.252-.25-.438zm-6.598-11.533l-.251-.439-.439.251.251.438.439-.25zm3.084-1.765l.253-.437-.251-.146-.253.145.251.438zm9.951 5.772l-.253.437.251.146.253-.144-.25-.439zm.055-.031l.251.438.462-.264-.288-.448-.425.274zm-5.06-8.57l-.25-.439-.439.25.25.44.44-.252zm2.201-1.26l.439-.25-.251-.439-.439.25.251.44zm6.347 11.095l-3.108 1.778.502.877 3.108-1.778-.502-.877zm-2.602 1.78l-10.008-5.854-.51.872 10.008 5.855.51-.872zm-10.514-5.856l-.071.04.501.877.071-.04-.501-.877zm-.242.757c.981 1.484 1.652 2.542 2.02 3.184l.876-.501c-.385-.673-1.072-1.756-2.053-3.24l-.843.557zm2.02 3.184l3.104 5.428.877-.502-3.105-5.427-.877.501zm3.292 4.738l-2.185 1.25.501.877 2.186-1.25-.502-.877zm-1.496 1.438l-6.598-11.533-.877.501 6.598 11.534.877-.502zm-6.786-10.844l3.085-1.765-.502-.876-3.084 1.764.501.877zm2.58-1.766l9.952 5.772.507-.873-9.952-5.773-.506.874zm10.456 5.774l.055-.032-.501-.877-.056.032.502.877zm.229-.744c-.936-1.453-1.576-2.48-1.923-3.088l-.877.501c.362.634 1.014 1.68 1.95 3.134l.85-.547zm-1.923-3.088l-3.123-5.46-.877.502 3.123 5.46.877-.502zm-3.31-4.77l2.2-1.26-.502-.876-2.2 1.259.501.877zm1.51-1.447l6.599 11.533.877-.501-6.598-11.534-.877.502zm19.432 4.192l-.346.367.272.257.325-.186-.251-.438zm-2.407-2.267l.347-.368-.273-.256-.325.186.251.438zm-4.204 2.405l-.251-.438-.325.186.083.365.493-.113zm.734 3.224l.25.438.325-.185-.083-.365-.492.112zm-2.635 1.507l-.497.092.13.7.618-.353-.251-.439zm-2.554-13.909l-.251-.438-.31.177.064.352.497-.091zm2.99-1.71l.33-.383-.271-.233-.31.177.25.439zm10.71 9.242l.252.439.62-.355-.541-.466-.33.382zm-6.798-2.476l.25.438.596-.34-.502-.468-.344.37zm-3.724-3.472l-.351.364.005.005.346-.369zm-.647-.655l.373-.34-.86.473.487-.133zm1.366 5.846l-.493.11.15.669.593-.34-.25-.439zm7.515 1.897l-2.406-2.267-.693.736 2.407 2.266.692-.735zm-3.004-2.337l-4.204 2.405.501.877 4.205-2.406-.502-.876zm-4.446 2.956l.734 3.223.985-.224-.734-3.224-.985.225zm.976 2.673l-2.635 1.507.502.877 2.635-1.508-.502-.876zm-1.887 1.854l-2.555-13.91-.993.183 2.554 13.91.994-.183zm-2.8-13.38l2.99-1.71-.502-.877-2.99 1.71.501.877zm2.408-1.766l10.712 9.243.66-.765-10.712-9.243-.66.765zm10.791 8.422l-2.635 1.507.502.877 2.635-1.507-.502-.877zm-6.204-2.408a2732.118 2732.118 0 0 1-3.722-3.47l-.692.737c.288.27 1.53 1.428 3.726 3.472l.688-.739zm-3.717-3.465a14.735 14.735 0 0 1-.625-.632l-.747.68c.161.177.386.404.67.679l.702-.727zm-1.485-.159c.207.758.66 2.694 1.36 5.823l.985-.22c-.698-3.12-1.156-5.083-1.371-5.87l-.974.267zm2.103 6.152l3.006-1.72-.502-.877-3.005 1.72.501.877zm17.886-4.448l.25.438.44-.25-.252-.439-.438.25zm-2.446 1.399l-.438.25.25.44.44-.252-.252-.438zm-5.433-9.498l.438-.251-.25-.438-.44.25.252.439zm-3.132 1.791l-.439.251.251.439.439-.251-.251-.439zm-1.164-2.035l-.251-.438-.439.25.251.439.439-.25zm8.709-4.982l.438-.25-.25-.44-.44.251.252.439zm1.164 2.035l.25.439.44-.251-.252-.439-.438.251zm-3.132 1.792l-.25-.439-.439.251.25.439.44-.251zm5.183 9.06l-2.445 1.398.501.877 2.446-1.399-.502-.877zm-1.756 1.586l-5.434-9.498-.877.502 5.434 9.498.877-.502zm-6.123-9.686l-3.132 1.792.502.877 3.132-1.792-.502-.877zm-2.443 1.98l-1.164-2.036-.877.502 1.164 2.035.877-.501zm-1.352-1.346l8.71-4.983-.502-.877-8.71 4.983.502.877zm8.02-5.17l1.165 2.035.876-.502-1.164-2.035-.877.502zm1.352 1.346l-3.132 1.791.502.877 3.132-1.791-.502-.877zm-3.32 2.48l5.434 9.499.877-.502-5.433-9.498-.877.502zm19.845 1.254l.251.439.439-.251-.251-.438-.439.25zm-6.642 3.8l-.438.251.25.439.439-.251-.25-.439zm-6.598-11.533l-.25-.438-.44.25.252.439.438-.251zm6.642-3.8l.439-.25-.251-.44-.438.252.25.438zm1.147 2.004l.25.438.439-.25-.25-.439-.44.25zm-4.197 2.4l-.25-.438-.44.251.251.439.439-.251zm1.449 2.533l-.439.25.25.44.44-.252-.251-.438zm3.904-2.234l.439-.25-.25-.44-.44.252.251.438zm1.147 2.004l.25.438.439-.25-.25-.44-.44.252zm-3.905 2.234l-.251-.439-.438.251.25.439.439-.251zm1.701 2.974l-.438.25.25.439.439-.25-.25-.44zm4.197-2.401l.438-.25-.25-.44-.439.252.251.438zm.905 1.581l-6.643 3.8.502.877 6.642-3.8-.501-.877zm-5.954 3.988l-6.598-11.534-.876.502 6.598 11.533.876-.501zm-6.785-10.845l6.642-3.8-.501-.876-6.643 3.8.502.876zm5.953-3.987l1.146 2.004.877-.502-1.146-2.004-.877.502zm1.334 1.314l-4.197 2.401.502.877 4.196-2.4-.501-.878zm-4.385 3.09l1.45 2.533.876-.502-1.449-2.532-.877.502zm2.138 2.72l3.905-2.234-.501-.876-3.905 2.234.501.876zm3.216-2.421l1.146 2.004.877-.502-1.146-2.004-.877.502zm1.334 1.314l-3.905 2.234.502.877 3.905-2.234-.502-.877zm-4.093 2.924l1.702 2.974.877-.502-1.702-2.974-.877.502zm2.391 3.161l4.197-2.4-.502-.877-4.197 2.4.502.877zm3.508-2.588l1.155 2.02.877-.502-1.156-2.02-.876.502z" fill="#fff"/>
  <path d="M311.16 146.326l18.464 6.022c1.236.404 1.854.605 2.442.442.587-.163 1.013-.654 1.864-1.637l.35-.403c1.988-2.295 2.983-3.443 2.62-4.534-.364-1.092-1.848-1.415-4.816-2.06l-14.649-3.185c-.946-.206-1.42-.309-1.786-.598-.366-.29-.576-.725-.996-1.598l-4.658-9.678a5.208 5.208 0 0 0-.205-.402 2.02 2.02 0 0 0-2.555-.795c-.09.04-.192.099-.396.216-.145.082-.217.123-.279.166a2.02 2.02 0 0 0-.872 1.945c.01.075.027.156.062.318l2.71 12.778c.236 1.113.354 1.67.715 2.071.362.403.903.58 1.984.932zM303.978 204.577l13.073-19.146c.484-.708.726-1.063 1.076-1.286.35-.222.773-.291 1.621-.43l.024-.003c7.84-1.278 21.259-3.466 24.72.28 3.276 3.548-3.63 12.93-5.369 22.002-.273 1.425-.41 2.138-.08 2.764.329.626 1.333 1.066 3.341 1.947 4.999 2.192 9.757 7.586 13.625 10.695 1.61 1.293 2.415 1.94 2.597 2.533.182.594-.067 1.402-.564 3.019l-1.76 5.714c-.423 1.374-.635 2.061-1.17 2.456-.535.395-1.254.395-2.692.395h-7.479c-.79 0-1.184 0-1.78-.932-.596-.933-.566-.999-.504-1.13.385-.832 1.231-1.474 2.142-1.474 1.005 0 2.324-1.565 3.298-3.234.626-1.072.94-1.609.717-2.426-.223-.818-.873-1.182-2.174-1.91-4.928-2.761-11.95-6.748-13.962-8.09-1.948-1.299-2.722-2.25-2.95-2.748-.004-.008.005.012-.036-.126-.041-.138-.056-.242-.087-.448l-1.343-9.133c-.499-3.395-.748-5.093-1.913-5.492-1.164-.4-2.403.788-4.88 3.163l-3.745 3.59c-1.295 1.24-1.943 1.861-2.053 2.524-.11.662.346 1.545 1.259 3.31 2.304 4.457 5.512 11.973 7.291 16.512.186.475.28.712.31.972.03.26-.007.519-.081 1.037l-.367 2.566c-.236 1.654-.354 2.481-.924 2.975-.57.494-1.404.494-3.074.494h-16.193c-1.259 0-1.471-2.44-.638-3.267.067-.066-.1.1.084-.017.185-.118.531-.243 1.223-.495l5.905-2.148c2.105-.765 3.158-1.148 3.478-2.04.32-.892-.246-1.854-1.379-3.777-3.226-5.476-7.416-12.446-8.673-14.018-1.543-1.93-.752-4.014-.091-4.93v-.002l.172-.238.005-.007z" fill="#1C2174"/>
  <path d="M0 18.185L10.1 2.703C13.3 1.524 21.514-.631 28.786.177c7.272.808 9.09 5.388 9.09 7.577l-5.555 15.482-12.12 2.526c-2.525-5.556-2.02-8.916-2.02-8.916-1.212 0-4.377 5.885-6.566 8.916L0 18.185z" transform="translate(307.121 181.972)" fill="url(#paint17_linear)"/>
  <path d="M18.993 45.505c-4.04 1.213-14.616-1.01-18.488-2.02 4.137-6.207 9.071-21.439 9.595-31.318.09-1.698-8.08-1.516-10.1-3.536C.505 6.105-.198 3.074 2.327.548c4.258-1.056 25.33-1.01 29.49 4.041 7.07 8.588.197 45.968-3.031 45.463-3.228-.505-4.743-6.062-9.793-4.547z" transform="translate(315.706 140.508)" fill="url(#paint18_linear)"/>
  <path d="M0 12.122C0 6.408 0 3.55 1.775 1.775 3.55 0 6.408 0 12.122 0h121.414c5.715 0 8.572 0 10.347 1.775 1.775 1.775 1.775 4.633 1.775 10.347v109.104c0 5.715 0 8.572-1.775 10.347-1.775 1.775-4.632 1.775-10.347 1.775H12.122c-5.714 0-8.572 0-10.347-1.775C0 129.798 0 126.941 0 121.226V12.122z" transform="rotate(-29.997 210.673 -257.449)" fill="url(#paint19_linear)"/>
  <path d="M321.25 120.428c1.163-4.005 8.188-4.719 10.61-3.718 5.558 2.296 5.679 11.946 6.066 14.75.25 1.81 1.058 8.867 0 10.102-.868 1.014-6.84 3.757-8.275-.393-.44-1.272-.66-1.908-1.141-2.277-.482-.37-.731-.387-1.23-.423-1.201-.086-2.414.024-2.989-.443-.93-.757-.648-3.183-1.515-5.052-.294-.632-.925-1.43-1.404-1.99-.343-.401-.515-.602-.629-.84-.114-.238-.146-.406-.21-.743-.408-2.139-.291-5.502.717-8.973z" fill="#1C2174"/>
  <path opacity=".4" d="M321.25 120.428c1.163-4.005 8.187-4.719 10.61-3.718 5.557 2.296 5.678 11.946 6.066 14.75-7.575-12.124-8.08-12.124-16.677-11.032z" fill="#FFE3D3"/>
  <path d="M308.942 151.159c2.378.792 17.255-2.237 24.814-3.942.23-.052.346-.078.482-.09.137-.012.23-.007.414.002 5.458.27 4.228 5.453 2.41 9.076-.35.696-.525 1.044-.905 1.329-.38.285-.803.363-1.648.518-6.018 1.106-26.136 4.385-30.419-.326-5.05-5.557-12.827-14.043-15.655-15.66-1.025-.585-8.08 0-10.606-5.051-.967-1.936.34-1.795 1.988-2.305 1.164-.36 1.746-.541 2.077-.533.332.008.592.103 1.114.294 1.083.395 2.26.932 3.24 1.412 1.066.522 1.6.783 2.275.643.676-.14.997-.513 1.637-1.26.464-.54.918-1.028 1.41-1.238-.104-.197-.197-.34-.259-.378-.115-.07.629.165 1.07.306l.094.028c.37.124.21.07-.094-.028a1.231 1.231 0 0 0-.81.072c.305.577.702 1.617.652 1.822-.053.222.709-1.307.404-.695-.316.633-.652 1.375-.736 2.184-.035.33-.052.495.124.95.176.454.398.652.841 1.048 4.964 4.428 13.805 11.061 16.086 11.822z" fill="#1C2174"/>
  <path d="M467.71 463.39c-3.12-1.239-5.2-4.543-5.617-6.195l-4.993 1.859c-.416 1.032-1.873 2.478-1.249 5.575.392 1.944.416 4.543 0 5.576h1.249c4.577-1.446 13.58-5.636 10.61-6.815zM494.203 421.235l-2-1.712-1.788-3.897c.157-.246.62-.644 1.215-.265.575.367 1.46 1.855 1.388 2.06.03-.042.084-.106.154-.19.41-.487 1.36-1.62 1.131-2.634-.221-.98-1.322-2.905-2.24-4.19-.477-.67-.371-1.697.45-1.71 1.422-.023 3.23.658 4.186 1.19 1.725.959 3.457 4.03 2.848 5.836s.248 4.843.248 4.843l-.09.017a.642.642 0 0 1 .092-.006c2.324 9.43 4.438 24.711-.879 32.913-2.24 1.09-3.665 2.665-5.11 3.808-3.062 2.426-6.396 5.53-11.952 9.571-7.408-1.838-4.802-12.106-1.01-13.379 0 0 10.238-5.408 11.313-7.346 1.314-2.368 3.99-17.734 2.044-24.909z" fill="#FFE3D3"/>
  <path d="M447.448 441.546c1.163-4.006 8.687-4.537 11.11-3.536 5.557 2.295 6.653 12.802 7.04 15.605.485 3.505-2.422 7.01-5.33 8.512-4.5 2.325-9.79 1.645-10.8-3.912l-2.525-5.051c-.646-2.003-.658-7.613.505-11.618z" fill="#770067"/>
  <path d="M18.154 63.74a3.93 3.93 0 0 1-.006-.296c.003-.077.011-.152.028-.303.48-4.273.808-7.107 1.052-9.214l.01-.09c.352-3.037.528-4.556.736-6.754 1.303-6.038 1.094-9.975.847-11.81-.1-.738-.15-1.107-.13-1.33.02-.224.106-.496.278-1.039l4.782-15.028a.326.326 0 0 1 .55-.12c.266.282.53.399.813.522.96.422 2.132.935 4.273 8.444.073.255.109.383.128.512.02.128.023.278.029.578.08 4.046 1.044 6.708 2.06 9.517.597 1.651 1.213 3.353 1.679 5.417 1.082 4.797 2.15 11.488 2.962 17.21.234 1.655.351 2.482-.067 3.119s-1.229.86-2.85 1.307l-6.016 1.659c-.577.159-1.088.521-1.253 1.093-.177.615-.266 1.308-.266 1.632 0 .495.209 1.858.624 2.478h17.439a.663.663 0 0 0 .663-.663v-.014c.023-.963.298-13.897-.625-24.104-.34-3.771-.82-6.425-1.224-8.666l-.001-.008-.002-.008c-.585-3.242-1.014-5.622-.645-9.284 0-1.703.104-3.765.218-6.014l.001-.011v-.009l.001-.01v-.011l.001-.009v-.01c.377-7.392.853-16.776-1.91-22.082a.39.39 0 0 0-.53-.162c-1.546.815-5.57 2.936-15.883 3.538-2.137.202-3.975.14-5.483-.033-2.663-.306-3.995-.46-4.624-.016-.63.444-.88 1.518-1.38 3.666-1.407 6.047-3.676 16.524-4.447 24.261-.77 4.207.362 15.024 1.194 22.978.406 3.874.74 7.07.75 8.49 0 .04-.032.09-.06.118-.017.017-.022.013-.045.02L1.519 66.041c-.577.16-1.088.522-1.253 1.093C.09 67.749 0 68.443 0 68.766c0 .496.208 1.859.624 2.478h13.584c2.098 0 3.147 0 3.746-.643.6-.643.523-1.714.37-3.856a98.553 98.553 0 0 1-.17-3.006z" transform="translate(444.287 506.756)" fill="url(#paint20_linear)"/>
  <path d="M234.398 163.788c-.417 1.652-5.995 14.477-9.116 15.716-2.969 1.178 6.033 5.369 10.61 6.814h1.25c-.417-1.032-.393-3.917 0-5.86h.876c.992.423 2.574 1.305 3.45 0 4.545-5.557 4.545-15.74 5.555-15.66l-12.625-1.01zM260.658 190.055h-9.09l4.04 10.608h7.575l7.576-4.546c-1.515-4.715-5.152-15.255-7.576-19.7-2.424-4.446-1.01-8.251 0-9.598v-7.072c-2.02.674-6.363 2.526-7.575 4.546-1.212 2.02 2.862 18.017 5.05 25.762z" fill="#FFE3D3"/>
  <path d="M242.478 160.252c-3.204-2.67-5.78-3.03-9.315-.504-4.893 3.495-6.458 12.855-6.846 15.658-.485 3.505 4.303 4.041 7.575 4.041 2.172 0 2.746-5.71 3.67-9.13.492-1.822 2.287-1.944 3.905-.972 5.433-1.82 7.032-3.563 8.08-7.577.647-2.003-4.04 1.01-7.07-1.516z" fill="#854FC6"/>
  <path d="M16.292 63.44c.447-4.441.75-7.358.974-9.513l.01-.09c.316-3.037.474-4.556.66-6.754 1.197-6.173.974-10.15.746-11.929-.085-.665-.128-.998-.11-1.215.02-.217.093-.452.24-.92 1.501-4.811 3.629-8.856 5.326-11.63 1.13-1.85 1.695-2.774 2.901-2.706 1.206.067 1.631.976 2.481 2.794 2.312 4.945 2.53 10.451 4.284 15.852.536 1.651 1.09 3.353 1.507 5.417 1 4.932 1.986 11.868 2.721 17.694.182 1.44.273 2.16-.064 2.748-.337.587-1.009.873-2.353 1.447l-5.47 2.333 46.41-19.796L29.75 67.124c-.433.185-.797.523-.925 1.02-.16.615-.24 1.308-.24 1.632 0 .496.188.848.561 1.468 9.358.784 16.62 1.005 19.108-4.503.185-.41.278-.615.307-.961.029-.347-.045-.625-.191-1.181-1.414-5.363-2.75-8.54-3.53-18.136-.306-3.771-.736-6.425-1.099-8.666a.244.244 0 0 1-.002-.016C41.795 25.773 47.1 11.526 41.637.32a.334.334 0 0 0-.47-.142c-1.389.815-5.002 2.936-14.263 3.538-3.233.21-5.757.135-7.68-.056-2.9-.288-4.351-.432-4.976.027-.624.458-.872 1.651-1.369 4.038-1.268 6.1-3.234 16.296-3.911 23.87-.692 4.206.324 15.023 1.072 22.977.364 3.875.664 7.071.672 8.492a.203.203 0 0 1-.053.117c-.015.016-.02.013-.04.021l-9.075 3.775 17.682-7.353L1.18 67.118c-.44.183-.812.524-.942 1.027C.08 68.76 0 69.453 0 69.777c0 .157 0-.236.097.066.13.401.903 1.175 1.305 1.304.301.097.452.097.752.097h10.194c2.079 0 3.118 0 3.716-.638.599-.638.53-1.697.395-3.814-.068-1.056-.13-2.21-.167-3.352z" transform="matrix(-1 0 0 1 249.716 222.869)" fill="url(#paint21_linear)"/>
  <path d="M19.974 34.567c3.995 10.407 4.212 21.25 3.796 26.412 4.25 1.8 7.576 3.908 12.626 1.515 9.595-4.546 15.19.439 18.685-3.03.505-26.267-6.903-37.038-6.903-38.896 0-1.859 3.03-3.536 10.606-16.164 0 0-7.454-5.9-11.615-4.042 0 0-8.586 11.113-12.626 10.103-1.248 1.238-5.832 5.516-13.945 5.516C16.425 15.153 0 22.176 0 22.176s1.664 9.5 2.497 11.152c5.201-1.859 16.05-2.478 17.477 1.239z" transform="matrix(-1 0 0 1 260.861 168.477)" fill="url(#paint22_linear)"/>
  <path d="M185.594 447.907c2.895 1.703 7.349-1.562 8.908-2.248v7.577c0 1.516.302 3.642-2.525 5.051-1.774.885-1.461 5.605-2.02 6.567l-3.222-4.385c-1.671-4.501-3.894-14.181-1.14-12.562z" fill="#FFE3D3"/>
  <path d="M177.754 451.407l2.145 10.227-6.315 6.368-2.818-1.633-3-13.081c-.273-1.19-.003-2.445.834-3.332 3.74-3.959 10.971-9.6 14.348-12.544 3.816-3.327 4.458-7.125 3.978-8.739l7.334-3.725c1.66 1.333-1.062 10.924-3.798 14.649-2.737 3.725-6.295 7.155-12.708 11.81z" fill="#FFE3D3"/>
  <path d="M17.501 18.67L4.828 34.293l7.845 7.128 13.276-17.934 11.422 13.756V0L0 15.29l17.501 3.38z" transform="translate(182.887 398.171)" fill="url(#paint23_linear)"/>
  <path d="M13.262 63.44c.447-4.441.75-7.358.974-9.513l.01-.09c.316-3.037.473-4.556.66-6.754 1.44-7.425.825-11.672.618-12.74-.035-.18.026-.567.072-.743.329-1.242 3.678-1.75 3.956-.496.313 1.408.665 2.82 1.122 4.225.536 1.651 1.089 3.353 1.507 5.417 1.03 5.085 2.047 12.3 2.789 18.233.149 1.195.224 1.793-.016 2.315s-.744.858-1.753 1.529l-2.862 1.903-4.289 2.852c-.009.005 5.458-3.793 3.272-2.273a1.458 1.458 0 0 0-.597.84c-.16.614-.24 1.307-.24 1.631 0 .496.188.848.561 1.468 9.167.767 12.01.996 13.982-4.173.231-.606.347-.909.345-1.286-.002-.378-.142-.735-.422-1.45-2.043-5.206-2.417-8.434-2.251-17.872-.306-3.771.273-6.425-.09-8.666v-.008l-.002-.008C28.665 25.773 33.97 11.526 28.507.32a.334.334 0 0 0-.47-.142c-1.39.815-5.003 2.936-14.264 3.538-.366.024-.708.044-1.028.06-.829.044-1.243.066-1.766.516-.523.45-.819 1.897-1.41 4.79C8.31 15.26 6.568 24.56 5.938 31.596c-.691 4.207.325 15.024 1.073 22.978.363 3.86.662 7.045.672 8.475 0 .05-.027.105-.06.14-.007.008-.006.006-.014.012L1.95 67.606a8771.9 8771.9 0 0 0-3.682 2.868L.713 68.41a1.436 1.436 0 0 0-.474.745c-.16.615-.239.298-.239.622 0 .157 0-.236.097.066.13.401.903 1.175 1.305 1.304.301.097.452.097.752.097h7.164c2.078 0 3.117 0 3.716-.638.599-.638.53-1.697.394-3.814-.067-1.056-.129-2.21-.166-3.352z" transform="matrix(-1 0 0 1 201.234 506.211)" fill="url(#paint24_linear)"/>
  <path d="M208.138 460.573l-8.525 3.156 6.314 6.368 6.25-3.221 3.816-3.77c1.461-1.443 1.61-3.752.316-5.347-3.498-4.309-8.638-10.367-11.693-13.03-3.816-3.328-3.811-7.387-3.331-9.001l-2.455-6.632c-1.66 1.333-5.09 4.578-5.526 6.894-.435 2.315 10.093 18.079 14.834 24.583z" fill="#FFE3D3"/>
  <path d="M14.14 36.109c3.995 10.408-1.086 12.123-8.585 43.947 4.25 1.8 9.596 8.082 16.161 4.04 9.595-4.545 17.17 2.526 17.17 2.526.125-6.46-3.534-6.061 0-16.164 8.74-24.98-10.605-11.575-4.545-51.525.837-5.513.505-6.062 4.04-17.68 0 0-4.928-2.407-9.09-.549 0 0-3.535 5.052-7.575 4.041-1.248 1.239 2.052 3.076-6.06 3.076-4.173-.828-10.1-2.526-10.1-2.526L0 12.366c4.545 3.03 12.12 3.535 9.595 15.66-.484 2.325 4.08 6.871 4.546 8.083z" transform="matrix(-1 0 0 1 206.622 457.539)" fill="url(#paint25_linear)"/>
  <path d="M180.361 482.028c-2.424 0-3.03-10.44-3.03-15.659l11.11 1.01c-1.683 4.883-5.656 14.65-8.08 14.65z" fill="#FFE3D3"/>
  <path d="M190.045 439.204c-3.647-2.021-9.172-1.192-11.418 2.528-3.108 5.147-2.382 24.394-1.801 27.164 1.801 8.587 5.049 3.592 14.645 2.525 4.545-.505-2.614-10.101-2.02-14.142.594-4.041 6.198-5.365 6.06-9.598-.121-3.738-2.02-6.567-5.466-8.477z" fill="#311D6D"/>
  <path d="M10.605 0C7.373 0 2.525 1.684.505 2.526c.808 3.637 0 8.924-.505 11.113 4.04.168 12.726.202 15.15-1.01 3.03-1.516 3.536-6.062 2.526-8.588C16.666 1.515 14.646 0 10.606 0z" transform="translate(327.123 146.108)" fill="url(#paint26_linear)"/>
  <path d="M425.8 496.168l17.17-9.093 2.02-10.608c0-2.525-4.242-1.111-7.07.505-2.828 1.617-8.922 7.577-12.12 8.588l-15.656 9.092 15.655 1.516z" fill="#CFBDB4"/>
  <path d="M19.31 65.635c.99-5.595-1.369-21.564-5.285-32.043-.745-1.992-2.383-1.673-4.522-.657-2.646 1.256-3.968 1.884-5.722 1.021-1.753-.863-2.04-2.198-2.615-4.866L.94 28.034C.465 25.785.228 24.66.655 23.546c.427-1.114 1.302-1.752 3.05-3.028 2.566-1.872 5.961-4.066 8.493-4.667l-20.07.913 22.606-1.144-1.52.077c-.319.016-.659.07-1.016.154l2.643-.12c7.499-.341 12.475-5.295 13.656-6.498C29.602 8.108 40.46 1.655 42.572.403c.148-.087.223-.131.493-.242.27-.112.246-.105.256-.108 3.708-.93 4.013 10.606 3.647 13.048-3.03 2.526-6.566 4.19-6.566 6.061 0 1.815 9.495 15.743 10.073 39.617.03 1.194.044 1.79-.357 2.649-.4.859-.619 1.033-1.055 1.381-1.933 1.543-4.615.71-11.928-.226-8.417-2.2-12.497-.366-17.825 3.052z" transform="translate(438.425 452.759)" fill="url(#paint27_linear)"/>
  <path d="M289.973 73.377c-3.88-1.55-7.796-1.741-11.743-.577a11.65 11.65 0 0 0-1.532-6.565c-1.635-2.879-4.043-4.76-7.226-5.648-3.182-.886-6.205-.516-9.07 1.11-2.593 1.473-4.357 3.589-5.291 6.346-3.784-2.951-8.09-4.636-12.919-5.054-4.829-.418-9.378.584-13.647 3.008-5.727 3.253-9.46 8.067-11.199 14.442-1.74 6.375-.974 12.441 2.296 18.199.231.407.59.975 1.076 1.705-2.301 3.246-3.567 6.9-3.795 10.965-.23 4.062.673 7.887 2.71 11.471 2.852 5.024 7.07 8.313 12.65 9.867 5.58 1.554 10.87.912 15.868-1.926l44.091-25.04c4.295-2.438 7.094-6.05 8.4-10.83 1.304-4.781.73-9.331-1.723-13.65-2.082-3.665-5.065-6.274-8.946-7.823z" fill="#fff" fill-opacity=".4"/>
  <g opacity=".3">
    <path d="M91.715 0H5.249C4.58 0 0 .543 0 1.213v70.314c0 .67 4.581 1.213 5.249 1.213h86.466c.667 0 5.248-.543 5.248-1.213V1.213c0-.67-4.58-1.213-5.248-1.213zm-4.269 63.072l-24.7-18.65a.493.493 0 0 0-.682-.028l-11.527 11.56L35.804 40.81c-.028-.035-.753-.02-.78.016L9.517 60.343V9.542h77.93v53.53z" fill="url(#paint28_linear)" transform="translate(335.401 270.876)"/>
    <path d="M60.975 32.217c3.272 0 5.928-2.664 5.928-5.95 0-3.285-2.656-5.95-5.928-5.95-3.275 0-5.928 2.665-5.928 5.95 0 3.286 2.654 5.95 5.928 5.95z" fill="url(#paint29_linear)" transform="translate(335.401 270.876)"/>
  </g>
  <path opacity=".3" d="M0 17.68C0 7.916 7.916 0 17.68 0h65.643c9.765 0 17.68 7.916 17.68 17.68s-7.915 17.68-17.68 17.68H17.68C7.916 35.36 0 27.444 0 17.68z" transform="translate(333.381 362.812)" fill="url(#paint30_linear)"/>
  <defs>
    <linearGradient id="paint0_linear" x2="1" gradientUnits="userSpaceOnUse" gradientTransform="matrix(-19.1712 -69.3094 58.3988 -15.912 29.725 73.187)">
      <stop offset=".005" stop-color="#B77CED"/>
      <stop offset="1" stop-color="#1E26C7"/>
    </linearGradient>
    <linearGradient id="paint1_linear" x2="1" gradientUnits="userSpaceOnUse" gradientTransform="matrix(-386.897 -374.982 517.216 -726.866 272.345 737.695)">
      <stop stop-color="#FFD912"/>
      <stop offset="1" stop-color="#FF724F"/>
    </linearGradient>
    <linearGradient id="paint2_linear" x2="1" gradientUnits="userSpaceOnUse" gradientTransform="matrix(168.171 -418.759 -414.081 -166.371 458.539 573.169)">
      <stop stop-color="#4D22A6"/>
      <stop offset="1" stop-color="#5EFFF6"/>
    </linearGradient>
    <linearGradient id="paint3_linear" x2="1" gradientUnits="userSpaceOnUse" gradientTransform="matrix(0 -110.958 103.173 0 3.424 149.656)">
      <stop offset=".005" stop-color="#06133C"/>
      <stop offset="1" stop-color="#0F4EC3"/>
    </linearGradient>
    <linearGradient id="paint4_linear" x2="1" gradientUnits="userSpaceOnUse" gradientTransform="matrix(234.328 37.3802 -60.5006 379.446 -8.438 -172.548)">
      <stop stop-color="#6B29BC"/>
      <stop offset="1" stop-color="#DABCCD"/>
    </linearGradient>
    <linearGradient id="paint5_linear" x2="1" gradientUnits="userSpaceOnUse" gradientTransform="matrix(-131.21 -114.498 177.62 -114.693 101.311 220.766)">
      <stop stop-color="#5C3CAA"/>
      <stop offset="1" stop-color="#FD6A45"/>
    </linearGradient>
    <linearGradient id="paint6_linear" x2="1" gradientUnits="userSpaceOnUse" gradientTransform="matrix(-196.081 -92.5229 1746 -740.774 -571.876 518.475)">
      <stop stop-color="#0D3599"/>
      <stop offset="1" stop-color="#8835A9"/>
    </linearGradient>
    <linearGradient id="paint7_linear" x2="1" gradientUnits="userSpaceOnUse" gradientTransform="matrix(-13.6354 -281.867 284.699 -13.7791 -49.427 211.47)">
      <stop stop-color="#7E2AB5"/>
      <stop offset="1" stop-color="#081647"/>
    </linearGradient>
    <linearGradient id="paint8_linear" x2="1" gradientUnits="userSpaceOnUse" gradientTransform="matrix(172.421 133.861 -153.656 198.013 100.353 -82.842)">
      <stop stop-color="#5EFDF6"/>
      <stop offset="1" stop-color="#489DDA"/>
    </linearGradient>
    <linearGradient id="paint9_linear" x2="1" gradientUnits="userSpaceOnUse" gradientTransform="matrix(-174.736 91.935 -140.561 -267.284 284.811 173.043)">
      <stop offset=".005" stop-color="#B77CED"/>
      <stop offset="1" stop-color="#1E26C7" stop-opacity="0"/>
    </linearGradient>
    <linearGradient id="paint10_linear" x2="1" gradientUnits="userSpaceOnUse" gradientTransform="matrix(55.5518 136.387 -156.568 63.8023 78.284 34.777)">
      <stop stop-color="#370069"/>
      <stop offset="1" stop-color="#E6D1C3" stop-opacity="0"/>
    </linearGradient>
    <linearGradient id="paint11_linear" x2="1" gradientUnits="userSpaceOnUse" gradientTransform="matrix(38.9234 75.1009 -94.5641 49.2163 75.02 -10.64)">
      <stop stop-color="#ECABDA"/>
      <stop offset="1" stop-color="#9135C8"/>
    </linearGradient>
    <linearGradient id="paint12_linear" x2="1" gradientUnits="userSpaceOnUse" gradientTransform="matrix(-14.122 -91.1426 43.0181 -20.9245 21.896 96.241)">
      <stop offset=".005" stop-color="#B77CED"/>
      <stop offset="1" stop-color="#1E26C7"/>
    </linearGradient>
    <linearGradient id="paint13_linear" x2="1" gradientUnits="userSpaceOnUse" gradientTransform="matrix(87.9911 -221.452 720.556 847.208 -311.783 -265.193)">
      <stop offset=".01" stop-color="#FDCB4B"/>
      <stop offset="1" stop-color="#FF0626"/>
    </linearGradient>
    <linearGradient id="paint14_linear" x2="1" gradientUnits="userSpaceOnUse" gradientTransform="matrix(-19.1906 43.4418 -49.3787 -21.8237 68.626 35.124)">
      <stop stop-color="#3C1156"/>
      <stop offset="1" stop-color="#EC0039" stop-opacity="0"/>
    </linearGradient>
    <linearGradient id="paint15_linear" x2="1" gradientUnits="userSpaceOnUse" gradientTransform="matrix(210.389 6.83189 -78.1534 2407.32 21.712 -1179.56)">
      <stop offset=".01" stop-color="#B77CEE"/>
      <stop offset="1" stop-color="#FF0626"/>
    </linearGradient>
    <linearGradient id="paint16_linear" x2="1" gradientUnits="userSpaceOnUse" gradientTransform="matrix(-93.2767 1.32753 -4.85 -340.859 89.761 179.486)">
      <stop stop-color="#ED2459"/>
      <stop offset="1" stop-color="#C271CC"/>
    </linearGradient>
    <linearGradient id="paint17_linear" x2="1" gradientUnits="userSpaceOnUse" gradientTransform="matrix(56.0569 -8.0822 -15.431 92.2952 -6.425 -24.932)">
      <stop stop-color="#FEE6D3"/>
      <stop offset=".496" stop-color="#FE6C6C"/>
      <stop offset="1" stop-color="#FA05D0"/>
    </linearGradient>
    <linearGradient id="paint18_linear" x2="1" gradientUnits="userSpaceOnUse" gradientTransform="matrix(40.8384 38.6725 -24.2273 73.7482 5.14 -40.042)">
      <stop stop-color="#5250E9"/>
      <stop offset="1" stop-color="#B05ABF"/>
    </linearGradient>
    <linearGradient id="paint19_linear" x2="1" gradientUnits="userSpaceOnUse" gradientTransform="matrix(85.7387 -197.5 702.11 755.573 -303.801 -236.509)">
      <stop offset=".01" stop-color="#FDCB4B"/>
      <stop offset="1" stop-color="#FF0626"/>
    </linearGradient>
    <linearGradient id="paint20_linear" x2="1" gradientUnits="userSpaceOnUse" gradientTransform="matrix(7.07023 -65.6678 237.188 25.5494 -86.075 52.408)">
      <stop stop-color="#622989"/>
      <stop offset="1" stop-color="#EF3E81"/>
    </linearGradient>
    <linearGradient id="paint21_linear" x2="1" gradientUnits="userSpaceOnUse" gradientTransform="matrix(0 58.5959 -37.3822 0 41.08 12.648)">
      <stop stop-color="#5F23BF"/>
      <stop offset="1" stop-color="#2D0F87"/>
    </linearGradient>
    <linearGradient id="paint22_linear" x2="1" gradientUnits="userSpaceOnUse" gradientTransform="matrix(-49.436 67.7727 -60.7032 -43.8394 73.335 27.033)">
      <stop stop-color="#6C86F4"/>
      <stop offset="1" stop-color="#A1F6F9"/>
    </linearGradient>
    <linearGradient id="paint23_linear" x2="1" gradientUnits="userSpaceOnUse" gradientTransform="matrix(0 33.8709 -41.7033 0 31.18 7.311)">
      <stop stop-color="#fff"/>
      <stop offset="1" stop-color="#FAE2DF"/>
    </linearGradient>
    <linearGradient id="paint24_linear" x2="1" gradientUnits="userSpaceOnUse" gradientTransform="matrix(0 58.5959 -37.3822 0 27.95 12.648)">
      <stop stop-color="#fff"/>
      <stop offset="1" stop-color="#FAE2DF"/>
    </linearGradient>
    <linearGradient id="paint25_linear" x2="1" gradientUnits="userSpaceOnUse" gradientTransform="matrix(0 84.4033 -62.2713 0 51.769 5.586)">
      <stop stop-color="#FE7446"/>
      <stop offset="1" stop-color="#FCEE92"/>
    </linearGradient>
    <linearGradient id="paint26_linear" x2="1" gradientUnits="userSpaceOnUse" gradientTransform="matrix(-12.6254 -21.2158 22.329 -10.1294 7.214 26.786)">
      <stop stop-color="#5250E9"/>
      <stop offset="1" stop-color="#B05ABF"/>
    </linearGradient>
    <linearGradient id="paint27_linear" x2="1" gradientUnits="userSpaceOnUse" gradientTransform="matrix(.23787 -68.0938 50.8097 .67716 14.037 64.692)">
      <stop stop-color="#3E157C"/>
      <stop offset="1" stop-color="#FE4C7F"/>
    </linearGradient>
    <linearGradient id="paint28_linear" x2="1" gradientUnits="userSpaceOnUse" gradientTransform="matrix(-23.3744 -63.2176 71.2024 -14.5135 36.242 66.754)">
      <stop offset=".005" stop-color="#0F4EC3"/>
      <stop offset="1" stop-color="#1E26C7"/>
    </linearGradient>
    <linearGradient id="paint29_linear" x2="1" gradientUnits="userSpaceOnUse" gradientTransform="matrix(-23.3744 -63.2176 71.2024 -14.5135 36.242 66.754)">
      <stop offset=".005" stop-color="#0F4EC3"/>
      <stop offset="1" stop-color="#1E26C7"/>
    </linearGradient>
    <linearGradient id="paint30_linear" x2="1" gradientUnits="userSpaceOnUse" gradientTransform="matrix(-24.3483 -30.7308 74.1692 -7.05516 37.752 32.45)">
      <stop offset=".005" stop-color="#0F4EC3"/>
      <stop offset="1" stop-color="#1E26C7"/>
    </linearGradient>
  </defs>
</svg>
